<?xml version="1.0" encoding="utf-8" standalone="no"?>
<!DOCTYPE svg PUBLIC "-//W3C//DTD SVG 1.1//EN"
  "http://www.w3.org/Graphics/SVG/1.1/DTD/svg11.dtd">
<svg xmlns:xlink="http://www.w3.org/1999/xlink" width="432pt" height="288pt" viewBox="0 0 432 288" xmlns="http://www.w3.org/2000/svg" version="1.1">
 <metadata>
  <rdf:RDF xmlns:dc="http://purl.org/dc/elements/1.1/" xmlns:cc="http://creativecommons.org/ns#" xmlns:rdf="http://www.w3.org/1999/02/22-rdf-syntax-ns#">
   <cc:Work>
    <dc:type rdf:resource="http://purl.org/dc/dcmitype/StillImage"/>
    <dc:date>2024-06-17T11:20:53.151026</dc:date>
    <dc:format>image/svg+xml</dc:format>
    <dc:creator>
     <cc:Agent>
      <dc:title>Matplotlib v3.9.0, https://matplotlib.org/</dc:title>
     </cc:Agent>
    </dc:creator>
   </cc:Work>
  </rdf:RDF>
 </metadata>
 <defs>
  <style type="text/css">*{stroke-linejoin: round; stroke-linecap: butt}</style>
 </defs>
 <g id="figure_1">
  <g id="patch_1">
   <path d="M 0 288 
L 432 288 
L 432 0 
L 0 0 
z
" style="fill: #ffffff"/>
  </g>
  <g id="axes_1">
   <g id="patch_2">
    <path d="M 58.038996 247.535024 
L 376.093311 247.535024 
L 376.093311 10.8 
L 58.038996 10.8 
z
" style="fill: #ffffff"/>
   </g>
   <g id="patch_3">
    <path d="M -50028.021475 21.560683 
L 76.13797 21.560683 
L 76.13797 32.887718 
L -50028.021475 32.887718 
z
" clip-path="url(#paf4796c511)" style="fill: #1f77b4; stroke: #000000; stroke-width: 0.7; stroke-linejoin: miter"/>
   </g>
   <g id="patch_4">
    <path d="M -50028.021475 66.868821 
L 144.928272 66.868821 
L 144.928272 78.195856 
L -50028.021475 78.195856 
z
" clip-path="url(#paf4796c511)" style="fill: #1f77b4; stroke: #000000; stroke-width: 0.7; stroke-linejoin: miter"/>
   </g>
   <g id="patch_5">
    <path d="M -50028.021475 112.17696 
L 144.348807 112.17696 
L 144.348807 123.503994 
L -50028.021475 123.503994 
z
" clip-path="url(#paf4796c511)" style="fill: #1f77b4; stroke: #000000; stroke-width: 0.7; stroke-linejoin: miter"/>
   </g>
   <g id="patch_6">
    <path d="M -50028.021475 157.485098 
L 145.141661 157.485098 
L 145.141661 168.812133 
L -50028.021475 168.812133 
z
" clip-path="url(#paf4796c511)" style="fill: #1f77b4; stroke: #000000; stroke-width: 0.7; stroke-linejoin: miter"/>
   </g>
   <g id="patch_7">
    <path d="M -50028.021475 202.793237 
L 170.263865 202.793237 
L 170.263865 214.120271 
L -50028.021475 214.120271 
z
" clip-path="url(#paf4796c511)" style="fill: #1f77b4; stroke: #000000; stroke-width: 0.7; stroke-linejoin: miter"/>
   </g>
   <g id="patch_8">
    <path d="M -50028.021475 32.887718 
L 77.753603 32.887718 
L 77.753603 44.214752 
L -50028.021475 44.214752 
z
" clip-path="url(#paf4796c511)" style="fill: #ff7f0e; stroke: #000000; stroke-width: 0.7; stroke-linejoin: miter"/>
   </g>
   <g id="patch_9">
    <path d="M -50028.021475 78.195856 
L 146.777509 78.195856 
L 146.777509 89.522891 
L -50028.021475 89.522891 
z
" clip-path="url(#paf4796c511)" style="fill: #ff7f0e; stroke: #000000; stroke-width: 0.7; stroke-linejoin: miter"/>
   </g>
   <g id="patch_10">
    <path d="M -50028.021475 123.503994 
L 146.64578 123.503994 
L 146.64578 134.831029 
L -50028.021475 134.831029 
z
" clip-path="url(#paf4796c511)" style="fill: #ff7f0e; stroke: #000000; stroke-width: 0.7; stroke-linejoin: miter"/>
   </g>
   <g id="patch_11">
    <path d="M -50028.021475 168.812133 
L 148.843431 168.812133 
L 148.843431 180.139168 
L -50028.021475 180.139168 
z
" clip-path="url(#paf4796c511)" style="fill: #ff7f0e; stroke: #000000; stroke-width: 0.7; stroke-linejoin: miter"/>
   </g>
   <g id="patch_12">
    <path d="M -50028.021475 214.120271 
L 173.518849 214.120271 
L 173.518849 225.447306 
L -50028.021475 225.447306 
z
" clip-path="url(#paf4796c511)" style="fill: #ff7f0e; stroke: #000000; stroke-width: 0.7; stroke-linejoin: miter"/>
   </g>
   <g id="patch_13">
    <path d="M -50028.021475 44.214752 
L 157.260844 44.214752 
L 157.260844 55.541787 
L -50028.021475 55.541787 
z
" clip-path="url(#paf4796c511)" style="fill: #2ca02c; stroke: #000000; stroke-width: 0.7; stroke-linejoin: miter"/>
   </g>
   <g id="patch_14">
    <path d="M -50028.021475 89.522891 
L 249.454485 89.522891 
L 249.454485 100.849925 
L -50028.021475 100.849925 
z
" clip-path="url(#paf4796c511)" style="fill: #2ca02c; stroke: #000000; stroke-width: 0.7; stroke-linejoin: miter"/>
   </g>
   <g id="patch_15">
    <path d="M -50028.021475 134.831029 
L 278.688561 134.831029 
L 278.688561 146.158064 
L -50028.021475 146.158064 
z
" clip-path="url(#paf4796c511)" style="fill: #2ca02c; stroke: #000000; stroke-width: 0.7; stroke-linejoin: miter"/>
   </g>
   <g id="patch_16">
    <path d="M -50028.021475 180.139168 
L 308.032037 180.139168 
L 308.032037 191.466202 
L -50028.021475 191.466202 
z
" clip-path="url(#paf4796c511)" style="fill: #2ca02c; stroke: #000000; stroke-width: 0.7; stroke-linejoin: miter"/>
   </g>
   <g id="patch_17">
    <path d="M -50028.021475 225.447306 
L 361.280707 225.447306 
L 361.280707 236.774341 
L -50028.021475 236.774341 
z
" clip-path="url(#paf4796c511)" style="fill: #2ca02c; stroke: #000000; stroke-width: 0.7; stroke-linejoin: miter"/>
   </g>
   <g id="matplotlib.axis_1">
    <g id="xtick_1">
     <g id="line2d_1">
      <path d="M 70.418146 247.535024 
L 70.418146 10.8 
" clip-path="url(#paf4796c511)" style="fill: none; stroke-dasharray: 1.85,0.8; stroke-dashoffset: 0; stroke: #808080; stroke-opacity: 0.5; stroke-width: 0.5"/>
     </g>
     <g id="line2d_2">
      <defs>
       <path id="m9eafe69ef7" d="M 0 0 
L 0 3.5 
" style="stroke: #000000; stroke-width: 0.8"/>
      </defs>
      <g>
       <use xlink:href="#m9eafe69ef7" x="70.418146" y="247.535024" style="stroke: #000000; stroke-width: 0.8"/>
      </g>
     </g>
     <g id="text_1">
      <!-- $\mathdefault{10^{-2}}$ -->
      <g transform="translate(61.490983 261.521322) scale(0.1 -0.1)">
       <defs>
        <path id="LinLibertineT-31" d="M 1843 779 
L 1843 3021 
C 1843 3409 1850 3802 1862 3886 
C 1862 3919 1850 3919 1824 3919 
C 1472 3700 1133 3540 570 3277 
C 582 3207 608 3141 666 3103 
C 960 3226 1101 3264 1222 3264 
C 1331 3264 1350 3109 1350 2889 
L 1350 780 
C 1350 243 1178 211 730 211 
C 691 172 691 39 730 0 
C 1043 0 1274 0 1619 0 
C 1926 0 2080 0 2400 0 
C 2438 39 2438 172 2400 211 
C 1952 211 1843 243 1843 779 
z
" transform="scale(0.015625)"/>
        <path id="LinLibertineT-30" d="M 1485 3680 
C 1594 3680 1696 3641 1773 3571 
C 1971 3405 2144 2919 2144 2061 
C 2144 1472 2125 1069 2035 743 
C 1894 218 1581 160 1466 160 
C 870 160 806 1255 806 1811 
C 806 3386 1197 3680 1485 3680 
z
M 1459 -64 
C 1952 -64 2701 435 2701 1939 
C 2701 2573 2547 3117 2266 3488 
C 2099 3712 1830 3904 1485 3904 
C 851 3904 250 3150 250 1882 
C 250 1196 461 557 813 204 
C 992 26 1210 -64 1459 -64 
z
" transform="scale(0.015625)"/>
        <path id="txsys-0" d="M 3673 1469 
L 3673 1827 
L 396 1827 
L 396 1469 
L 3673 1469 
z
" transform="scale(0.015625)"/>
        <path id="LinLibertineT-32" d="M 390 2997 
C 390 2863 512 2747 646 2747 
C 755 2747 947 2863 947 3003 
C 947 3054 934 3093 922 3137 
C 909 3182 870 3239 870 3291 
C 870 3450 1037 3680 1504 3680 
C 1734 3680 2061 3521 2061 2908 
C 2061 2500 1914 2169 1536 1786 
L 1062 1320 
C 435 682 333 377 333 0 
C 333 0 659 0 864 0 
L 1984 0 
C 2189 0 2483 0 2483 0 
C 2566 337 2630 813 2637 1004 
C 2598 1036 2515 1048 2451 1036 
C 2342 582 2234 423 2003 423 
L 864 423 
C 864 730 1306 1164 1338 1196 
L 1984 1815 
C 2349 2167 2624 2448 2624 2933 
C 2624 3623 2061 3904 1542 3904 
C 832 3904 390 3380 390 2997 
z
" transform="scale(0.015625)"/>
       </defs>
       <use xlink:href="#LinLibertineT-31" transform="scale(0.996264)"/>
       <use xlink:href="#LinLibertineT-30" transform="translate(46.326292 0) scale(0.996264)"/>
       <use xlink:href="#txsys-0" transform="translate(92.652583 36.164371) scale(0.727268)"/>
       <use xlink:href="#LinLibertineT-32" transform="translate(138.906834 36.164371) scale(0.727268)"/>
      </g>
     </g>
    </g>
    <g id="xtick_2">
     <g id="line2d_3">
      <path d="M 120.616983 247.535024 
L 120.616983 10.8 
" clip-path="url(#paf4796c511)" style="fill: none; stroke-dasharray: 1.85,0.8; stroke-dashoffset: 0; stroke: #808080; stroke-opacity: 0.5; stroke-width: 0.5"/>
     </g>
     <g id="line2d_4">
      <g>
       <use xlink:href="#m9eafe69ef7" x="120.616983" y="247.535024" style="stroke: #000000; stroke-width: 0.8"/>
      </g>
     </g>
     <g id="text_2">
      <!-- $\mathdefault{10^{-1}}$ -->
      <g transform="translate(111.68982 261.521322) scale(0.1 -0.1)">
       <use xlink:href="#LinLibertineT-31" transform="scale(0.996264)"/>
       <use xlink:href="#LinLibertineT-30" transform="translate(46.326292 0) scale(0.996264)"/>
       <use xlink:href="#txsys-0" transform="translate(92.652583 36.164371) scale(0.727268)"/>
       <use xlink:href="#LinLibertineT-31" transform="translate(138.906834 36.164371) scale(0.727268)"/>
      </g>
     </g>
    </g>
    <g id="xtick_3">
     <g id="line2d_5">
      <path d="M 170.815821 247.535024 
L 170.815821 10.8 
" clip-path="url(#paf4796c511)" style="fill: none; stroke-dasharray: 1.85,0.8; stroke-dashoffset: 0; stroke: #808080; stroke-opacity: 0.5; stroke-width: 0.5"/>
     </g>
     <g id="line2d_6">
      <g>
       <use xlink:href="#m9eafe69ef7" x="170.815821" y="247.535024" style="stroke: #000000; stroke-width: 0.8"/>
      </g>
     </g>
     <g id="text_3">
      <!-- $\mathdefault{10^{0}}$ -->
      <g transform="translate(164.49229 261.521322) scale(0.1 -0.1)">
       <use xlink:href="#LinLibertineT-31" transform="scale(0.996264)"/>
       <use xlink:href="#LinLibertineT-30" transform="translate(46.326292 0) scale(0.996264)"/>
       <use xlink:href="#LinLibertineT-30" transform="translate(92.652583 36.164371) scale(0.727268)"/>
      </g>
     </g>
    </g>
    <g id="xtick_4">
     <g id="line2d_7">
      <path d="M 221.014658 247.535024 
L 221.014658 10.8 
" clip-path="url(#paf4796c511)" style="fill: none; stroke-dasharray: 1.85,0.8; stroke-dashoffset: 0; stroke: #808080; stroke-opacity: 0.5; stroke-width: 0.5"/>
     </g>
     <g id="line2d_8">
      <g>
       <use xlink:href="#m9eafe69ef7" x="221.014658" y="247.535024" style="stroke: #000000; stroke-width: 0.8"/>
      </g>
     </g>
     <g id="text_4">
      <!-- $\mathdefault{10^{1}}$ -->
      <g transform="translate(214.691127 261.521322) scale(0.1 -0.1)">
       <use xlink:href="#LinLibertineT-31" transform="scale(0.996264)"/>
       <use xlink:href="#LinLibertineT-30" transform="translate(46.326292 0) scale(0.996264)"/>
       <use xlink:href="#LinLibertineT-31" transform="translate(92.652583 36.164371) scale(0.727268)"/>
      </g>
     </g>
    </g>
    <g id="xtick_5">
     <g id="line2d_9">
      <path d="M 271.213495 247.535024 
L 271.213495 10.8 
" clip-path="url(#paf4796c511)" style="fill: none; stroke-dasharray: 1.85,0.8; stroke-dashoffset: 0; stroke: #808080; stroke-opacity: 0.5; stroke-width: 0.5"/>
     </g>
     <g id="line2d_10">
      <g>
       <use xlink:href="#m9eafe69ef7" x="271.213495" y="247.535024" style="stroke: #000000; stroke-width: 0.8"/>
      </g>
     </g>
     <g id="text_5">
      <!-- $\mathdefault{10^{2}}$ -->
      <g transform="translate(264.889964 261.521322) scale(0.1 -0.1)">
       <use xlink:href="#LinLibertineT-31" transform="scale(0.996264)"/>
       <use xlink:href="#LinLibertineT-30" transform="translate(46.326292 0) scale(0.996264)"/>
       <use xlink:href="#LinLibertineT-32" transform="translate(92.652583 36.164371) scale(0.727268)"/>
      </g>
     </g>
    </g>
    <g id="xtick_6">
     <g id="line2d_11">
      <path d="M 321.412332 247.535024 
L 321.412332 10.8 
" clip-path="url(#paf4796c511)" style="fill: none; stroke-dasharray: 1.85,0.8; stroke-dashoffset: 0; stroke: #808080; stroke-opacity: 0.5; stroke-width: 0.5"/>
     </g>
     <g id="line2d_12">
      <g>
       <use xlink:href="#m9eafe69ef7" x="321.412332" y="247.535024" style="stroke: #000000; stroke-width: 0.8"/>
      </g>
     </g>
     <g id="text_6">
      <!-- $\mathdefault{10^{3}}$ -->
      <g transform="translate(315.088801 261.521322) scale(0.1 -0.1)">
       <defs>
        <path id="LinLibertineT-33" d="M 1376 3680 
C 1651 3680 1907 3513 1907 3105 
C 1907 2784 1536 2292 902 2202 
L 934 1997 
C 1043 2010 1158 2010 1242 2010 
C 1606 2010 2080 1907 2080 1185 
C 2080 334 1510 160 1286 160 
C 960 160 902 308 826 422 
C 762 512 678 589 550 589 
C 416 589 282 467 282 365 
C 282 109 819 -64 1203 -64 
C 1965 -64 2643 429 2643 1273 
C 2643 1971 2118 2221 1741 2285 
L 1734 2298 
C 2259 2548 2406 2810 2406 3149 
C 2406 3341 2362 3495 2208 3654 
C 2067 3795 1843 3904 1510 3904 
C 570 3904 301 3290 301 3079 
C 301 2989 365 2861 518 2861 
C 742 2861 768 3072 768 3193 
C 768 3603 1210 3680 1376 3680 
z
" transform="scale(0.015625)"/>
       </defs>
       <use xlink:href="#LinLibertineT-31" transform="scale(0.996264)"/>
       <use xlink:href="#LinLibertineT-30" transform="translate(46.326292 0) scale(0.996264)"/>
       <use xlink:href="#LinLibertineT-33" transform="translate(92.652583 36.164371) scale(0.727268)"/>
      </g>
     </g>
    </g>
    <g id="xtick_7">
     <g id="line2d_13">
      <path d="M 371.61117 247.535024 
L 371.61117 10.8 
" clip-path="url(#paf4796c511)" style="fill: none; stroke-dasharray: 1.85,0.8; stroke-dashoffset: 0; stroke: #808080; stroke-opacity: 0.5; stroke-width: 0.5"/>
     </g>
     <g id="line2d_14">
      <g>
       <use xlink:href="#m9eafe69ef7" x="371.61117" y="247.535024" style="stroke: #000000; stroke-width: 0.8"/>
      </g>
     </g>
     <g id="text_7">
      <!-- $\mathdefault{10^{4}}$ -->
      <g transform="translate(365.287639 261.521322) scale(0.1 -0.1)">
       <defs>
        <path id="LinLibertineT-34" d="M 1734 3251 
L 1734 1408 
L 512 1408 
C 838 1933 1293 2649 1734 3251 
z
M 2752 1408 
L 2221 1408 
L 2221 3281 
C 2221 3602 2221 3852 2234 3904 
L 2221 3904 
L 2016 3904 
C 1971 3904 1939 3866 1914 3834 
C 1510 3342 768 2288 179 1375 
C 198 1278 237 1106 429 1106 
L 1734 1106 
L 1734 509 
C 1734 211 1491 211 1216 211 
C 1178 172 1178 39 1216 0 
C 1421 0 1677 0 1971 0 
C 2221 0 2464 0 2669 0 
C 2707 39 2707 171 2669 210 
C 2355 235 2221 223 2221 521 
L 2221 1106 
L 2662 1106 
C 2752 1106 2848 1228 2848 1305 
C 2848 1369 2822 1408 2752 1408 
z
" transform="scale(0.015625)"/>
       </defs>
       <use xlink:href="#LinLibertineT-31" transform="scale(0.996264)"/>
       <use xlink:href="#LinLibertineT-30" transform="translate(46.326292 0) scale(0.996264)"/>
       <use xlink:href="#LinLibertineT-34" transform="translate(92.652583 36.164371) scale(0.727268)"/>
      </g>
     </g>
    </g>
    <g id="xtick_8">
     <g id="line2d_15">
      <path d="M 59.281597 247.535024 
L 59.281597 10.8 
" clip-path="url(#paf4796c511)" style="fill: none; stroke-dasharray: 1.85,0.8; stroke-dashoffset: 0; stroke: #808080; stroke-opacity: 0.5; stroke-width: 0.5"/>
     </g>
     <g id="line2d_16">
      <defs>
       <path id="m91a905caf2" d="M 0 0 
L 0 2 
" style="stroke: #000000; stroke-width: 0.6"/>
      </defs>
      <g>
       <use xlink:href="#m91a905caf2" x="59.281597" y="247.535024" style="stroke: #000000; stroke-width: 0.6"/>
      </g>
     </g>
    </g>
    <g id="xtick_9">
     <g id="line2d_17">
      <path d="M 62.642248 247.535024 
L 62.642248 10.8 
" clip-path="url(#paf4796c511)" style="fill: none; stroke-dasharray: 1.85,0.8; stroke-dashoffset: 0; stroke: #808080; stroke-opacity: 0.5; stroke-width: 0.5"/>
     </g>
     <g id="line2d_18">
      <g>
       <use xlink:href="#m91a905caf2" x="62.642248" y="247.535024" style="stroke: #000000; stroke-width: 0.6"/>
      </g>
     </g>
    </g>
    <g id="xtick_10">
     <g id="line2d_19">
      <path d="M 65.553376 247.535024 
L 65.553376 10.8 
" clip-path="url(#paf4796c511)" style="fill: none; stroke-dasharray: 1.85,0.8; stroke-dashoffset: 0; stroke: #808080; stroke-opacity: 0.5; stroke-width: 0.5"/>
     </g>
     <g id="line2d_20">
      <g>
       <use xlink:href="#m91a905caf2" x="65.553376" y="247.535024" style="stroke: #000000; stroke-width: 0.6"/>
      </g>
     </g>
    </g>
    <g id="xtick_11">
     <g id="line2d_21">
      <path d="M 68.121173 247.535024 
L 68.121173 10.8 
" clip-path="url(#paf4796c511)" style="fill: none; stroke-dasharray: 1.85,0.8; stroke-dashoffset: 0; stroke: #808080; stroke-opacity: 0.5; stroke-width: 0.5"/>
     </g>
     <g id="line2d_22">
      <g>
       <use xlink:href="#m91a905caf2" x="68.121173" y="247.535024" style="stroke: #000000; stroke-width: 0.6"/>
      </g>
     </g>
    </g>
    <g id="xtick_12">
     <g id="line2d_23">
      <path d="M 85.529502 247.535024 
L 85.529502 10.8 
" clip-path="url(#paf4796c511)" style="fill: none; stroke-dasharray: 1.85,0.8; stroke-dashoffset: 0; stroke: #808080; stroke-opacity: 0.5; stroke-width: 0.5"/>
     </g>
     <g id="line2d_24">
      <g>
       <use xlink:href="#m91a905caf2" x="85.529502" y="247.535024" style="stroke: #000000; stroke-width: 0.6"/>
      </g>
     </g>
    </g>
    <g id="xtick_13">
     <g id="line2d_25">
      <path d="M 94.369078 247.535024 
L 94.369078 10.8 
" clip-path="url(#paf4796c511)" style="fill: none; stroke-dasharray: 1.85,0.8; stroke-dashoffset: 0; stroke: #808080; stroke-opacity: 0.5; stroke-width: 0.5"/>
     </g>
     <g id="line2d_26">
      <g>
       <use xlink:href="#m91a905caf2" x="94.369078" y="247.535024" style="stroke: #000000; stroke-width: 0.6"/>
      </g>
     </g>
    </g>
    <g id="xtick_14">
     <g id="line2d_27">
      <path d="M 100.640858 247.535024 
L 100.640858 10.8 
" clip-path="url(#paf4796c511)" style="fill: none; stroke-dasharray: 1.85,0.8; stroke-dashoffset: 0; stroke: #808080; stroke-opacity: 0.5; stroke-width: 0.5"/>
     </g>
     <g id="line2d_28">
      <g>
       <use xlink:href="#m91a905caf2" x="100.640858" y="247.535024" style="stroke: #000000; stroke-width: 0.6"/>
      </g>
     </g>
    </g>
    <g id="xtick_15">
     <g id="line2d_29">
      <path d="M 105.505628 247.535024 
L 105.505628 10.8 
" clip-path="url(#paf4796c511)" style="fill: none; stroke-dasharray: 1.85,0.8; stroke-dashoffset: 0; stroke: #808080; stroke-opacity: 0.5; stroke-width: 0.5"/>
     </g>
     <g id="line2d_30">
      <g>
       <use xlink:href="#m91a905caf2" x="105.505628" y="247.535024" style="stroke: #000000; stroke-width: 0.6"/>
      </g>
     </g>
    </g>
    <g id="xtick_16">
     <g id="line2d_31">
      <path d="M 109.480434 247.535024 
L 109.480434 10.8 
" clip-path="url(#paf4796c511)" style="fill: none; stroke-dasharray: 1.85,0.8; stroke-dashoffset: 0; stroke: #808080; stroke-opacity: 0.5; stroke-width: 0.5"/>
     </g>
     <g id="line2d_32">
      <g>
       <use xlink:href="#m91a905caf2" x="109.480434" y="247.535024" style="stroke: #000000; stroke-width: 0.6"/>
      </g>
     </g>
    </g>
    <g id="xtick_17">
     <g id="line2d_33">
      <path d="M 112.841085 247.535024 
L 112.841085 10.8 
" clip-path="url(#paf4796c511)" style="fill: none; stroke-dasharray: 1.85,0.8; stroke-dashoffset: 0; stroke: #808080; stroke-opacity: 0.5; stroke-width: 0.5"/>
     </g>
     <g id="line2d_34">
      <g>
       <use xlink:href="#m91a905caf2" x="112.841085" y="247.535024" style="stroke: #000000; stroke-width: 0.6"/>
      </g>
     </g>
    </g>
    <g id="xtick_18">
     <g id="line2d_35">
      <path d="M 115.752213 247.535024 
L 115.752213 10.8 
" clip-path="url(#paf4796c511)" style="fill: none; stroke-dasharray: 1.85,0.8; stroke-dashoffset: 0; stroke: #808080; stroke-opacity: 0.5; stroke-width: 0.5"/>
     </g>
     <g id="line2d_36">
      <g>
       <use xlink:href="#m91a905caf2" x="115.752213" y="247.535024" style="stroke: #000000; stroke-width: 0.6"/>
      </g>
     </g>
    </g>
    <g id="xtick_19">
     <g id="line2d_37">
      <path d="M 118.32001 247.535024 
L 118.32001 10.8 
" clip-path="url(#paf4796c511)" style="fill: none; stroke-dasharray: 1.85,0.8; stroke-dashoffset: 0; stroke: #808080; stroke-opacity: 0.5; stroke-width: 0.5"/>
     </g>
     <g id="line2d_38">
      <g>
       <use xlink:href="#m91a905caf2" x="118.32001" y="247.535024" style="stroke: #000000; stroke-width: 0.6"/>
      </g>
     </g>
    </g>
    <g id="xtick_20">
     <g id="line2d_39">
      <path d="M 135.728339 247.535024 
L 135.728339 10.8 
" clip-path="url(#paf4796c511)" style="fill: none; stroke-dasharray: 1.85,0.8; stroke-dashoffset: 0; stroke: #808080; stroke-opacity: 0.5; stroke-width: 0.5"/>
     </g>
     <g id="line2d_40">
      <g>
       <use xlink:href="#m91a905caf2" x="135.728339" y="247.535024" style="stroke: #000000; stroke-width: 0.6"/>
      </g>
     </g>
    </g>
    <g id="xtick_21">
     <g id="line2d_41">
      <path d="M 144.567916 247.535024 
L 144.567916 10.8 
" clip-path="url(#paf4796c511)" style="fill: none; stroke-dasharray: 1.85,0.8; stroke-dashoffset: 0; stroke: #808080; stroke-opacity: 0.5; stroke-width: 0.5"/>
     </g>
     <g id="line2d_42">
      <g>
       <use xlink:href="#m91a905caf2" x="144.567916" y="247.535024" style="stroke: #000000; stroke-width: 0.6"/>
      </g>
     </g>
    </g>
    <g id="xtick_22">
     <g id="line2d_43">
      <path d="M 150.839695 247.535024 
L 150.839695 10.8 
" clip-path="url(#paf4796c511)" style="fill: none; stroke-dasharray: 1.85,0.8; stroke-dashoffset: 0; stroke: #808080; stroke-opacity: 0.5; stroke-width: 0.5"/>
     </g>
     <g id="line2d_44">
      <g>
       <use xlink:href="#m91a905caf2" x="150.839695" y="247.535024" style="stroke: #000000; stroke-width: 0.6"/>
      </g>
     </g>
    </g>
    <g id="xtick_23">
     <g id="line2d_45">
      <path d="M 155.704465 247.535024 
L 155.704465 10.8 
" clip-path="url(#paf4796c511)" style="fill: none; stroke-dasharray: 1.85,0.8; stroke-dashoffset: 0; stroke: #808080; stroke-opacity: 0.5; stroke-width: 0.5"/>
     </g>
     <g id="line2d_46">
      <g>
       <use xlink:href="#m91a905caf2" x="155.704465" y="247.535024" style="stroke: #000000; stroke-width: 0.6"/>
      </g>
     </g>
    </g>
    <g id="xtick_24">
     <g id="line2d_47">
      <path d="M 159.679271 247.535024 
L 159.679271 10.8 
" clip-path="url(#paf4796c511)" style="fill: none; stroke-dasharray: 1.85,0.8; stroke-dashoffset: 0; stroke: #808080; stroke-opacity: 0.5; stroke-width: 0.5"/>
     </g>
     <g id="line2d_48">
      <g>
       <use xlink:href="#m91a905caf2" x="159.679271" y="247.535024" style="stroke: #000000; stroke-width: 0.6"/>
      </g>
     </g>
    </g>
    <g id="xtick_25">
     <g id="line2d_49">
      <path d="M 163.039922 247.535024 
L 163.039922 10.8 
" clip-path="url(#paf4796c511)" style="fill: none; stroke-dasharray: 1.85,0.8; stroke-dashoffset: 0; stroke: #808080; stroke-opacity: 0.5; stroke-width: 0.5"/>
     </g>
     <g id="line2d_50">
      <g>
       <use xlink:href="#m91a905caf2" x="163.039922" y="247.535024" style="stroke: #000000; stroke-width: 0.6"/>
      </g>
     </g>
    </g>
    <g id="xtick_26">
     <g id="line2d_51">
      <path d="M 165.951051 247.535024 
L 165.951051 10.8 
" clip-path="url(#paf4796c511)" style="fill: none; stroke-dasharray: 1.85,0.8; stroke-dashoffset: 0; stroke: #808080; stroke-opacity: 0.5; stroke-width: 0.5"/>
     </g>
     <g id="line2d_52">
      <g>
       <use xlink:href="#m91a905caf2" x="165.951051" y="247.535024" style="stroke: #000000; stroke-width: 0.6"/>
      </g>
     </g>
    </g>
    <g id="xtick_27">
     <g id="line2d_53">
      <path d="M 168.518848 247.535024 
L 168.518848 10.8 
" clip-path="url(#paf4796c511)" style="fill: none; stroke-dasharray: 1.85,0.8; stroke-dashoffset: 0; stroke: #808080; stroke-opacity: 0.5; stroke-width: 0.5"/>
     </g>
     <g id="line2d_54">
      <g>
       <use xlink:href="#m91a905caf2" x="168.518848" y="247.535024" style="stroke: #000000; stroke-width: 0.6"/>
      </g>
     </g>
    </g>
    <g id="xtick_28">
     <g id="line2d_55">
      <path d="M 185.927176 247.535024 
L 185.927176 10.8 
" clip-path="url(#paf4796c511)" style="fill: none; stroke-dasharray: 1.85,0.8; stroke-dashoffset: 0; stroke: #808080; stroke-opacity: 0.5; stroke-width: 0.5"/>
     </g>
     <g id="line2d_56">
      <g>
       <use xlink:href="#m91a905caf2" x="185.927176" y="247.535024" style="stroke: #000000; stroke-width: 0.6"/>
      </g>
     </g>
    </g>
    <g id="xtick_29">
     <g id="line2d_57">
      <path d="M 194.766753 247.535024 
L 194.766753 10.8 
" clip-path="url(#paf4796c511)" style="fill: none; stroke-dasharray: 1.85,0.8; stroke-dashoffset: 0; stroke: #808080; stroke-opacity: 0.5; stroke-width: 0.5"/>
     </g>
     <g id="line2d_58">
      <g>
       <use xlink:href="#m91a905caf2" x="194.766753" y="247.535024" style="stroke: #000000; stroke-width: 0.6"/>
      </g>
     </g>
    </g>
    <g id="xtick_30">
     <g id="line2d_59">
      <path d="M 201.038532 247.535024 
L 201.038532 10.8 
" clip-path="url(#paf4796c511)" style="fill: none; stroke-dasharray: 1.85,0.8; stroke-dashoffset: 0; stroke: #808080; stroke-opacity: 0.5; stroke-width: 0.5"/>
     </g>
     <g id="line2d_60">
      <g>
       <use xlink:href="#m91a905caf2" x="201.038532" y="247.535024" style="stroke: #000000; stroke-width: 0.6"/>
      </g>
     </g>
    </g>
    <g id="xtick_31">
     <g id="line2d_61">
      <path d="M 205.903302 247.535024 
L 205.903302 10.8 
" clip-path="url(#paf4796c511)" style="fill: none; stroke-dasharray: 1.85,0.8; stroke-dashoffset: 0; stroke: #808080; stroke-opacity: 0.5; stroke-width: 0.5"/>
     </g>
     <g id="line2d_62">
      <g>
       <use xlink:href="#m91a905caf2" x="205.903302" y="247.535024" style="stroke: #000000; stroke-width: 0.6"/>
      </g>
     </g>
    </g>
    <g id="xtick_32">
     <g id="line2d_63">
      <path d="M 209.878109 247.535024 
L 209.878109 10.8 
" clip-path="url(#paf4796c511)" style="fill: none; stroke-dasharray: 1.85,0.8; stroke-dashoffset: 0; stroke: #808080; stroke-opacity: 0.5; stroke-width: 0.5"/>
     </g>
     <g id="line2d_64">
      <g>
       <use xlink:href="#m91a905caf2" x="209.878109" y="247.535024" style="stroke: #000000; stroke-width: 0.6"/>
      </g>
     </g>
    </g>
    <g id="xtick_33">
     <g id="line2d_65">
      <path d="M 213.23876 247.535024 
L 213.23876 10.8 
" clip-path="url(#paf4796c511)" style="fill: none; stroke-dasharray: 1.85,0.8; stroke-dashoffset: 0; stroke: #808080; stroke-opacity: 0.5; stroke-width: 0.5"/>
     </g>
     <g id="line2d_66">
      <g>
       <use xlink:href="#m91a905caf2" x="213.23876" y="247.535024" style="stroke: #000000; stroke-width: 0.6"/>
      </g>
     </g>
    </g>
    <g id="xtick_34">
     <g id="line2d_67">
      <path d="M 216.149888 247.535024 
L 216.149888 10.8 
" clip-path="url(#paf4796c511)" style="fill: none; stroke-dasharray: 1.85,0.8; stroke-dashoffset: 0; stroke: #808080; stroke-opacity: 0.5; stroke-width: 0.5"/>
     </g>
     <g id="line2d_68">
      <g>
       <use xlink:href="#m91a905caf2" x="216.149888" y="247.535024" style="stroke: #000000; stroke-width: 0.6"/>
      </g>
     </g>
    </g>
    <g id="xtick_35">
     <g id="line2d_69">
      <path d="M 218.717685 247.535024 
L 218.717685 10.8 
" clip-path="url(#paf4796c511)" style="fill: none; stroke-dasharray: 1.85,0.8; stroke-dashoffset: 0; stroke: #808080; stroke-opacity: 0.5; stroke-width: 0.5"/>
     </g>
     <g id="line2d_70">
      <g>
       <use xlink:href="#m91a905caf2" x="218.717685" y="247.535024" style="stroke: #000000; stroke-width: 0.6"/>
      </g>
     </g>
    </g>
    <g id="xtick_36">
     <g id="line2d_71">
      <path d="M 236.126014 247.535024 
L 236.126014 10.8 
" clip-path="url(#paf4796c511)" style="fill: none; stroke-dasharray: 1.85,0.8; stroke-dashoffset: 0; stroke: #808080; stroke-opacity: 0.5; stroke-width: 0.5"/>
     </g>
     <g id="line2d_72">
      <g>
       <use xlink:href="#m91a905caf2" x="236.126014" y="247.535024" style="stroke: #000000; stroke-width: 0.6"/>
      </g>
     </g>
    </g>
    <g id="xtick_37">
     <g id="line2d_73">
      <path d="M 244.96559 247.535024 
L 244.96559 10.8 
" clip-path="url(#paf4796c511)" style="fill: none; stroke-dasharray: 1.85,0.8; stroke-dashoffset: 0; stroke: #808080; stroke-opacity: 0.5; stroke-width: 0.5"/>
     </g>
     <g id="line2d_74">
      <g>
       <use xlink:href="#m91a905caf2" x="244.96559" y="247.535024" style="stroke: #000000; stroke-width: 0.6"/>
      </g>
     </g>
    </g>
    <g id="xtick_38">
     <g id="line2d_75">
      <path d="M 251.237369 247.535024 
L 251.237369 10.8 
" clip-path="url(#paf4796c511)" style="fill: none; stroke-dasharray: 1.85,0.8; stroke-dashoffset: 0; stroke: #808080; stroke-opacity: 0.5; stroke-width: 0.5"/>
     </g>
     <g id="line2d_76">
      <g>
       <use xlink:href="#m91a905caf2" x="251.237369" y="247.535024" style="stroke: #000000; stroke-width: 0.6"/>
      </g>
     </g>
    </g>
    <g id="xtick_39">
     <g id="line2d_77">
      <path d="M 256.102139 247.535024 
L 256.102139 10.8 
" clip-path="url(#paf4796c511)" style="fill: none; stroke-dasharray: 1.85,0.8; stroke-dashoffset: 0; stroke: #808080; stroke-opacity: 0.5; stroke-width: 0.5"/>
     </g>
     <g id="line2d_78">
      <g>
       <use xlink:href="#m91a905caf2" x="256.102139" y="247.535024" style="stroke: #000000; stroke-width: 0.6"/>
      </g>
     </g>
    </g>
    <g id="xtick_40">
     <g id="line2d_79">
      <path d="M 260.076946 247.535024 
L 260.076946 10.8 
" clip-path="url(#paf4796c511)" style="fill: none; stroke-dasharray: 1.85,0.8; stroke-dashoffset: 0; stroke: #808080; stroke-opacity: 0.5; stroke-width: 0.5"/>
     </g>
     <g id="line2d_80">
      <g>
       <use xlink:href="#m91a905caf2" x="260.076946" y="247.535024" style="stroke: #000000; stroke-width: 0.6"/>
      </g>
     </g>
    </g>
    <g id="xtick_41">
     <g id="line2d_81">
      <path d="M 263.437597 247.535024 
L 263.437597 10.8 
" clip-path="url(#paf4796c511)" style="fill: none; stroke-dasharray: 1.85,0.8; stroke-dashoffset: 0; stroke: #808080; stroke-opacity: 0.5; stroke-width: 0.5"/>
     </g>
     <g id="line2d_82">
      <g>
       <use xlink:href="#m91a905caf2" x="263.437597" y="247.535024" style="stroke: #000000; stroke-width: 0.6"/>
      </g>
     </g>
    </g>
    <g id="xtick_42">
     <g id="line2d_83">
      <path d="M 266.348725 247.535024 
L 266.348725 10.8 
" clip-path="url(#paf4796c511)" style="fill: none; stroke-dasharray: 1.85,0.8; stroke-dashoffset: 0; stroke: #808080; stroke-opacity: 0.5; stroke-width: 0.5"/>
     </g>
     <g id="line2d_84">
      <g>
       <use xlink:href="#m91a905caf2" x="266.348725" y="247.535024" style="stroke: #000000; stroke-width: 0.6"/>
      </g>
     </g>
    </g>
    <g id="xtick_43">
     <g id="line2d_85">
      <path d="M 268.916522 247.535024 
L 268.916522 10.8 
" clip-path="url(#paf4796c511)" style="fill: none; stroke-dasharray: 1.85,0.8; stroke-dashoffset: 0; stroke: #808080; stroke-opacity: 0.5; stroke-width: 0.5"/>
     </g>
     <g id="line2d_86">
      <g>
       <use xlink:href="#m91a905caf2" x="268.916522" y="247.535024" style="stroke: #000000; stroke-width: 0.6"/>
      </g>
     </g>
    </g>
    <g id="xtick_44">
     <g id="line2d_87">
      <path d="M 286.324851 247.535024 
L 286.324851 10.8 
" clip-path="url(#paf4796c511)" style="fill: none; stroke-dasharray: 1.85,0.8; stroke-dashoffset: 0; stroke: #808080; stroke-opacity: 0.5; stroke-width: 0.5"/>
     </g>
     <g id="line2d_88">
      <g>
       <use xlink:href="#m91a905caf2" x="286.324851" y="247.535024" style="stroke: #000000; stroke-width: 0.6"/>
      </g>
     </g>
    </g>
    <g id="xtick_45">
     <g id="line2d_89">
      <path d="M 295.164427 247.535024 
L 295.164427 10.8 
" clip-path="url(#paf4796c511)" style="fill: none; stroke-dasharray: 1.85,0.8; stroke-dashoffset: 0; stroke: #808080; stroke-opacity: 0.5; stroke-width: 0.5"/>
     </g>
     <g id="line2d_90">
      <g>
       <use xlink:href="#m91a905caf2" x="295.164427" y="247.535024" style="stroke: #000000; stroke-width: 0.6"/>
      </g>
     </g>
    </g>
    <g id="xtick_46">
     <g id="line2d_91">
      <path d="M 301.436207 247.535024 
L 301.436207 10.8 
" clip-path="url(#paf4796c511)" style="fill: none; stroke-dasharray: 1.85,0.8; stroke-dashoffset: 0; stroke: #808080; stroke-opacity: 0.5; stroke-width: 0.5"/>
     </g>
     <g id="line2d_92">
      <g>
       <use xlink:href="#m91a905caf2" x="301.436207" y="247.535024" style="stroke: #000000; stroke-width: 0.6"/>
      </g>
     </g>
    </g>
    <g id="xtick_47">
     <g id="line2d_93">
      <path d="M 306.300977 247.535024 
L 306.300977 10.8 
" clip-path="url(#paf4796c511)" style="fill: none; stroke-dasharray: 1.85,0.8; stroke-dashoffset: 0; stroke: #808080; stroke-opacity: 0.5; stroke-width: 0.5"/>
     </g>
     <g id="line2d_94">
      <g>
       <use xlink:href="#m91a905caf2" x="306.300977" y="247.535024" style="stroke: #000000; stroke-width: 0.6"/>
      </g>
     </g>
    </g>
    <g id="xtick_48">
     <g id="line2d_95">
      <path d="M 310.275783 247.535024 
L 310.275783 10.8 
" clip-path="url(#paf4796c511)" style="fill: none; stroke-dasharray: 1.85,0.8; stroke-dashoffset: 0; stroke: #808080; stroke-opacity: 0.5; stroke-width: 0.5"/>
     </g>
     <g id="line2d_96">
      <g>
       <use xlink:href="#m91a905caf2" x="310.275783" y="247.535024" style="stroke: #000000; stroke-width: 0.6"/>
      </g>
     </g>
    </g>
    <g id="xtick_49">
     <g id="line2d_97">
      <path d="M 313.636434 247.535024 
L 313.636434 10.8 
" clip-path="url(#paf4796c511)" style="fill: none; stroke-dasharray: 1.85,0.8; stroke-dashoffset: 0; stroke: #808080; stroke-opacity: 0.5; stroke-width: 0.5"/>
     </g>
     <g id="line2d_98">
      <g>
       <use xlink:href="#m91a905caf2" x="313.636434" y="247.535024" style="stroke: #000000; stroke-width: 0.6"/>
      </g>
     </g>
    </g>
    <g id="xtick_50">
     <g id="line2d_99">
      <path d="M 316.547562 247.535024 
L 316.547562 10.8 
" clip-path="url(#paf4796c511)" style="fill: none; stroke-dasharray: 1.85,0.8; stroke-dashoffset: 0; stroke: #808080; stroke-opacity: 0.5; stroke-width: 0.5"/>
     </g>
     <g id="line2d_100">
      <g>
       <use xlink:href="#m91a905caf2" x="316.547562" y="247.535024" style="stroke: #000000; stroke-width: 0.6"/>
      </g>
     </g>
    </g>
    <g id="xtick_51">
     <g id="line2d_101">
      <path d="M 319.11536 247.535024 
L 319.11536 10.8 
" clip-path="url(#paf4796c511)" style="fill: none; stroke-dasharray: 1.85,0.8; stroke-dashoffset: 0; stroke: #808080; stroke-opacity: 0.5; stroke-width: 0.5"/>
     </g>
     <g id="line2d_102">
      <g>
       <use xlink:href="#m91a905caf2" x="319.11536" y="247.535024" style="stroke: #000000; stroke-width: 0.6"/>
      </g>
     </g>
    </g>
    <g id="xtick_52">
     <g id="line2d_103">
      <path d="M 336.523688 247.535024 
L 336.523688 10.8 
" clip-path="url(#paf4796c511)" style="fill: none; stroke-dasharray: 1.85,0.8; stroke-dashoffset: 0; stroke: #808080; stroke-opacity: 0.5; stroke-width: 0.5"/>
     </g>
     <g id="line2d_104">
      <g>
       <use xlink:href="#m91a905caf2" x="336.523688" y="247.535024" style="stroke: #000000; stroke-width: 0.6"/>
      </g>
     </g>
    </g>
    <g id="xtick_53">
     <g id="line2d_105">
      <path d="M 345.363265 247.535024 
L 345.363265 10.8 
" clip-path="url(#paf4796c511)" style="fill: none; stroke-dasharray: 1.85,0.8; stroke-dashoffset: 0; stroke: #808080; stroke-opacity: 0.5; stroke-width: 0.5"/>
     </g>
     <g id="line2d_106">
      <g>
       <use xlink:href="#m91a905caf2" x="345.363265" y="247.535024" style="stroke: #000000; stroke-width: 0.6"/>
      </g>
     </g>
    </g>
    <g id="xtick_54">
     <g id="line2d_107">
      <path d="M 351.635044 247.535024 
L 351.635044 10.8 
" clip-path="url(#paf4796c511)" style="fill: none; stroke-dasharray: 1.85,0.8; stroke-dashoffset: 0; stroke: #808080; stroke-opacity: 0.5; stroke-width: 0.5"/>
     </g>
     <g id="line2d_108">
      <g>
       <use xlink:href="#m91a905caf2" x="351.635044" y="247.535024" style="stroke: #000000; stroke-width: 0.6"/>
      </g>
     </g>
    </g>
    <g id="xtick_55">
     <g id="line2d_109">
      <path d="M 356.499814 247.535024 
L 356.499814 10.8 
" clip-path="url(#paf4796c511)" style="fill: none; stroke-dasharray: 1.85,0.8; stroke-dashoffset: 0; stroke: #808080; stroke-opacity: 0.5; stroke-width: 0.5"/>
     </g>
     <g id="line2d_110">
      <g>
       <use xlink:href="#m91a905caf2" x="356.499814" y="247.535024" style="stroke: #000000; stroke-width: 0.6"/>
      </g>
     </g>
    </g>
    <g id="xtick_56">
     <g id="line2d_111">
      <path d="M 360.47462 247.535024 
L 360.47462 10.8 
" clip-path="url(#paf4796c511)" style="fill: none; stroke-dasharray: 1.85,0.8; stroke-dashoffset: 0; stroke: #808080; stroke-opacity: 0.5; stroke-width: 0.5"/>
     </g>
     <g id="line2d_112">
      <g>
       <use xlink:href="#m91a905caf2" x="360.47462" y="247.535024" style="stroke: #000000; stroke-width: 0.6"/>
      </g>
     </g>
    </g>
    <g id="xtick_57">
     <g id="line2d_113">
      <path d="M 363.835271 247.535024 
L 363.835271 10.8 
" clip-path="url(#paf4796c511)" style="fill: none; stroke-dasharray: 1.85,0.8; stroke-dashoffset: 0; stroke: #808080; stroke-opacity: 0.5; stroke-width: 0.5"/>
     </g>
     <g id="line2d_114">
      <g>
       <use xlink:href="#m91a905caf2" x="363.835271" y="247.535024" style="stroke: #000000; stroke-width: 0.6"/>
      </g>
     </g>
    </g>
    <g id="xtick_58">
     <g id="line2d_115">
      <path d="M 366.7464 247.535024 
L 366.7464 10.8 
" clip-path="url(#paf4796c511)" style="fill: none; stroke-dasharray: 1.85,0.8; stroke-dashoffset: 0; stroke: #808080; stroke-opacity: 0.5; stroke-width: 0.5"/>
     </g>
     <g id="line2d_116">
      <g>
       <use xlink:href="#m91a905caf2" x="366.7464" y="247.535024" style="stroke: #000000; stroke-width: 0.6"/>
      </g>
     </g>
    </g>
    <g id="xtick_59">
     <g id="line2d_117">
      <path d="M 369.314197 247.535024 
L 369.314197 10.8 
" clip-path="url(#paf4796c511)" style="fill: none; stroke-dasharray: 1.85,0.8; stroke-dashoffset: 0; stroke: #808080; stroke-opacity: 0.5; stroke-width: 0.5"/>
     </g>
     <g id="line2d_118">
      <g>
       <use xlink:href="#m91a905caf2" x="369.314197" y="247.535024" style="stroke: #000000; stroke-width: 0.6"/>
      </g>
     </g>
    </g>
    <g id="text_8">
     <!-- Average time (ms/op) -->
     <g transform="translate(173.290402 274.828902) scale(0.1 -0.1)">
      <defs>
       <path id="LinLibertineT-41" d="M 1683 1805 
C 1542 1805 1498 1824 1523 1888 
L 2176 3560 
L 2214 3560 
L 2816 1805 
L 1683 1805 
z
M 992 512 
L 1344 1429 
C 1376 1510 1414 1536 1568 1536 
L 2918 1536 
L 3290 454 
C 3366 237 3123 211 2816 211 
C 2778 172 2778 39 2816 0 
C 3053 0 3405 0 3654 0 
C 3917 0 4160 0 4384 0 
C 4422 39 4422 173 4384 212 
C 4134 236 3917 256 3808 564 
L 2490 4224 
C 2394 4166 2221 4096 2138 4096 
L 685 648 
C 518 250 326 211 45 211 
C 6 172 6 39 45 0 
C 211 0 422 0 614 0 
C 877 0 1197 0 1434 0 
C 1472 38 1472 170 1434 209 
C 1190 228 890 253 992 512 
z
" transform="scale(0.015625)"/>
       <path id="LinLibertineT-76" d="M 2080 2573 
C 2426 2547 2464 2470 2330 2143 
L 1811 886 
C 1709 636 1677 636 1574 905 
L 1114 2143 
C 998 2451 973 2528 1312 2573 
C 1350 2611 1350 2746 1312 2784 
C 1101 2784 877 2784 666 2784 
C 454 2784 262 2784 70 2784 
C 32 2746 32 2611 70 2572 
C 410 2533 454 2431 582 2102 
L 1402 71 
C 1440 -25 1478 -64 1562 -64 
C 1626 -64 1670 -25 1715 84 
L 2566 2096 
C 2688 2379 2758 2540 3117 2572 
C 3155 2611 3155 2746 3117 2784 
C 2989 2784 2835 2784 2669 2784 
C 2458 2784 2240 2784 2080 2784 
C 2042 2746 2042 2611 2080 2573 
z
" transform="scale(0.015625)"/>
       <path id="LinLibertineT-65" d="M 794 1831 
C 915 2547 1363 2604 1517 2604 
C 1760 2604 2048 2467 2048 1922 
C 2048 1863 2022 1831 1952 1831 
L 794 1831 
z
M 2470 600 
C 2234 354 2048 250 1677 250 
C 1446 250 1178 386 979 715 
C 851 929 774 1226 774 1600 
L 2477 1600 
C 2554 1600 2598 1638 2598 1708 
C 2598 2243 2406 2816 1517 2816 
C 960 2816 237 2281 237 1302 
C 237 941 326 593 538 348 
C 755 91 1056 -64 1517 -64 
C 2003 -64 2349 161 2605 497 
C 2586 562 2547 594 2470 600 
z
" transform="scale(0.015625)"/>
       <path id="LinLibertineT-72" d="M 1126 2296 
C 1114 2553 1107 2719 1075 2784 
C 1062 2816 1050 2835 998 2835 
C 819 2764 653 2707 211 2649 
C 198 2610 211 2508 224 2469 
C 570 2436 640 2404 640 2031 
L 640 777 
C 640 244 563 218 166 218 
C 128 178 128 40 166 0 
C 390 0 640 0 896 0 
C 1152 0 1446 0 1670 0 
C 1709 39 1709 172 1670 211 
C 1222 243 1146 262 1146 791 
L 1146 1678 
C 1146 1844 1222 1990 1299 2106 
C 1370 2207 1517 2418 1594 2418 
C 1651 2418 1709 2405 1760 2335 
C 1805 2271 1882 2188 1990 2188 
C 2144 2188 2291 2348 2291 2508 
C 2291 2630 2176 2816 1907 2816 
C 1606 2816 1344 2533 1197 2283 
C 1158 2213 1126 2264 1126 2296 
z
" transform="scale(0.015625)"/>
       <path id="LinLibertineT-61" d="M 1875 1495 
L 1875 648 
C 1875 564 1837 520 1786 481 
C 1619 346 1402 199 1222 199 
C 902 199 762 455 762 654 
C 762 944 896 1239 1370 1361 
L 1875 1495 
z
M 1875 308 
C 1914 109 1984 -64 2304 -64 
C 2547 -64 2778 45 2912 173 
C 2899 250 2874 309 2803 347 
C 2758 309 2650 244 2566 244 
C 2381 244 2374 494 2374 789 
L 2374 1732 
C 2374 2642 1875 2816 1408 2816 
C 883 2816 352 2469 352 2104 
C 352 1950 429 1873 576 1873 
C 762 1873 877 2007 877 2091 
C 877 2136 870 2181 858 2206 
C 851 2226 845 2264 845 2335 
C 845 2533 1114 2604 1357 2604 
C 1574 2604 1875 2495 1875 1770 
C 1875 1725 1856 1700 1837 1693 
L 1286 1559 
C 672 1405 230 1065 230 629 
C 230 103 589 -64 1037 -64 
C 1261 -64 1453 -13 1734 205 
L 1862 308 
L 1875 308 
z
" transform="scale(0.015625)"/>
       <path id="LinLibertineT-67" d="M 2042 1798 
C 2042 1209 1741 1088 1504 1088 
C 966 1088 909 1538 909 1944 
C 909 2389 1069 2617 1421 2617 
C 1824 2617 2042 2325 2042 1798 
z
M 845 -84 
C 915 -103 1018 -116 1101 -116 
C 1299 -116 1478 -71 1568 -71 
C 1888 -71 2157 -71 2342 -176 
C 2592 -319 2669 -411 2669 -581 
C 2669 -1051 1990 -1299 1414 -1299 
C 1184 -1299 646 -1115 646 -682 
C 646 -466 659 -307 845 -84 
z
M 2842 2463 
C 2963 2463 3078 2579 3078 2707 
C 3078 2841 2957 2944 2784 2944 
C 2618 2944 2310 2841 2144 2636 
C 2067 2687 1856 2816 1478 2816 
C 909 2816 384 2435 384 1850 
C 384 1506 538 1310 717 1138 
C 538 983 435 705 435 485 
C 435 252 563 71 730 -13 
C 384 -220 205 -519 205 -797 
C 205 -1361 730 -1536 1222 -1536 
C 2086 -1536 3021 -1115 3021 -414 
C 3021 -206 2925 -43 2739 113 
C 2490 320 2042 320 1805 320 
C 1690 320 1530 294 1376 256 
C 1280 256 1216 256 1184 256 
C 998 256 774 350 774 637 
C 774 770 813 911 890 1024 
C 1043 934 1222 889 1472 889 
C 2035 889 2554 1235 2554 1853 
C 2554 2148 2464 2318 2278 2507 
C 2323 2577 2451 2674 2534 2674 
C 2579 2674 2624 2653 2662 2590 
C 2688 2533 2771 2463 2842 2463 
z
" transform="scale(0.015625)"/>
       <path id="LinLibertineT-74" d="M 275 2752 
C 186 2752 160 2675 160 2623 
L 160 2540 
C 160 2509 166 2502 192 2502 
L 570 2502 
L 570 571 
C 570 115 768 -64 1062 -64 
C 1357 -64 1677 77 1926 360 
C 1914 424 1875 463 1811 469 
C 1645 340 1453 289 1286 289 
C 1114 289 1075 481 1075 879 
L 1075 2502 
L 1741 2502 
C 1805 2502 1894 2528 1894 2586 
L 1894 2714 
C 1894 2740 1875 2752 1843 2752 
L 1075 2752 
L 1075 3006 
C 1075 3426 1101 3685 1101 3685 
C 1101 3725 1082 3744 1050 3744 
C 1024 3744 966 3718 909 3685 
C 838 3647 774 3614 691 3594 
C 614 3569 550 3549 550 3504 
C 550 3426 570 3471 570 2752 
L 275 2752 
z
" transform="scale(0.015625)"/>
       <path id="LinLibertineT-69" d="M 576 3852 
C 576 3685 730 3518 883 3518 
C 1062 3518 1216 3691 1216 3826 
C 1216 3980 1082 4160 909 4160 
C 755 4160 576 4006 576 3852 
z
M 1158 779 
L 1158 2064 
C 1158 2386 1184 2799 1184 2799 
C 1184 2825 1152 2844 1101 2844 
C 922 2773 666 2716 224 2658 
C 211 2619 224 2517 237 2478 
C 589 2446 653 2408 653 2043 
L 653 794 
C 653 263 582 244 192 212 
C 154 173 154 39 192 0 
C 403 0 653 0 909 0 
C 1165 0 1408 0 1619 0 
C 1658 40 1658 178 1619 218 
C 1229 218 1158 244 1158 779 
z
" transform="scale(0.015625)"/>
       <path id="LinLibertineT-6d" d="M 1088 2309 
C 1082 2503 1069 2733 1037 2798 
C 1024 2830 1011 2849 960 2849 
C 781 2778 614 2721 173 2663 
C 160 2624 173 2522 186 2483 
C 531 2451 602 2419 602 2047 
L 602 795 
C 602 270 518 237 166 212 
C 128 173 128 39 166 0 
C 358 0 602 0 858 0 
C 1114 0 1312 0 1504 0 
C 1542 39 1542 173 1504 212 
C 1178 244 1107 270 1107 795 
L 1107 1848 
C 1107 1983 1165 2060 1216 2118 
C 1472 2368 1709 2496 1907 2496 
C 2150 2496 2330 2342 2330 1912 
L 2330 795 
C 2330 270 2278 237 1933 212 
C 1901 173 1901 39 1933 0 
C 2093 0 2330 0 2586 0 
C 2842 0 3053 0 3213 0 
C 3245 39 3245 173 3213 212 
C 2893 237 2835 270 2835 795 
L 2835 1814 
C 2835 1904 2835 1994 2829 2071 
C 3136 2413 3424 2496 3674 2496 
C 3917 2496 4058 2355 4058 1925 
L 4058 795 
C 4058 270 3994 237 3661 212 
C 3629 173 3629 39 3661 0 
C 3821 0 4058 0 4314 0 
C 4570 0 4794 0 4973 0 
C 5005 39 5005 173 4973 212 
C 4621 237 4563 270 4563 795 
L 4563 1810 
C 4563 2381 4467 2830 3904 2830 
C 3578 2830 3181 2708 2848 2355 
C 2829 2336 2790 2304 2778 2361 
C 2720 2624 2470 2830 2138 2830 
C 1766 2830 1434 2612 1165 2309 
C 1133 2277 1094 2232 1088 2309 
z
" transform="scale(0.015625)"/>
       <path id="LinLibertineT-28" d="M 282 1616 
C 282 1328 307 -154 1638 -1308 
C 1702 -1296 1754 -1251 1773 -1199 
C 1562 -956 813 -71 813 1616 
C 813 3303 1568 4188 1773 4419 
C 1754 4483 1709 4528 1638 4534 
C 877 3880 282 2809 282 1616 
z
" transform="scale(0.015625)"/>
       <path id="LinLibertineT-73" d="M 307 886 
C 333 572 352 269 352 0 
C 416 13 480 19 512 19 
C 557 19 595 19 640 6 
C 813 -38 986 -64 1222 -64 
C 1581 -64 2240 109 2240 744 
C 2240 1180 1926 1437 1491 1597 
C 1107 1745 851 1841 851 2193 
C 851 2456 1082 2604 1299 2604 
C 1440 2604 1811 2553 1894 2007 
C 1933 1969 2061 1969 2099 2008 
C 2118 2241 2131 2480 2138 2694 
C 1939 2726 1632 2816 1299 2816 
C 826 2816 397 2508 397 2097 
C 397 1629 608 1430 1101 1225 
C 1632 1007 1754 872 1754 596 
C 1754 282 1446 148 1210 148 
C 960 148 819 230 755 300 
C 614 447 544 727 506 885 
C 467 924 346 924 307 886 
z
" transform="scale(0.015625)"/>
       <path id="LinLibertineT-2f" d="M 1875 4128 
L 1613 4128 
L 96 -384 
L 358 -384 
L 1875 4128 
z
" transform="scale(0.015625)"/>
       <path id="LinLibertineT-6f" d="M 262 1315 
C 262 661 698 -64 1606 -64 
C 2016 -64 2330 83 2547 295 
C 2835 577 2963 981 2963 1373 
C 2963 2040 2598 2816 1619 2816 
C 1197 2816 851 2642 614 2367 
C 384 2091 262 1719 262 1315 
z
M 1523 2591 
C 2074 2591 2413 2091 2413 1167 
C 2413 359 1997 160 1696 160 
C 1030 160 813 968 813 1462 
C 813 2020 947 2591 1523 2591 
z
" transform="scale(0.015625)"/>
       <path id="LinLibertineT-70" d="M 1120 2162 
C 1286 2367 1581 2560 1766 2560 
C 2176 2560 2528 2098 2528 1373 
C 2528 846 2342 192 1626 192 
C 1510 192 1286 224 1171 327 
C 1043 442 1018 481 1018 711 
L 1018 1880 
C 1018 2014 1043 2072 1120 2162 
z
M 998 2400 
C 992 2592 979 2758 947 2823 
C 934 2855 922 2874 870 2874 
C 691 2803 525 2746 83 2688 
C 70 2649 83 2546 96 2507 
C 442 2474 512 2442 512 2067 
L 512 -693 
C 512 -1229 442 -1261 51 -1261 
C 13 -1300 13 -1433 51 -1472 
C 275 -1472 512 -1472 768 -1472 
C 1024 -1472 1331 -1472 1542 -1472 
C 1581 -1433 1581 -1300 1542 -1261 
C 1088 -1261 1018 -1235 1018 -687 
L 1018 25 
C 1018 109 1043 102 1107 70 
C 1267 12 1459 -26 1664 -26 
C 2022 -26 2342 83 2605 333 
C 2906 628 3078 1026 3078 1546 
C 3078 2226 2598 2855 1946 2855 
C 1651 2855 1325 2656 1069 2375 
C 1030 2336 1005 2336 998 2400 
z
" transform="scale(0.015625)"/>
       <path id="LinLibertineT-29" d="M 1626 1616 
C 1626 1905 1600 3386 269 4541 
C 205 4528 154 4483 134 4432 
C 346 4188 1094 3303 1094 1616 
C 1094 -71 339 -956 134 -1187 
C 154 -1251 198 -1296 269 -1302 
C 1030 -648 1626 423 1626 1616 
z
" transform="scale(0.015625)"/>
      </defs>
      <use xlink:href="#LinLibertineT-41" transform="scale(0.996264)"/>
      <use xlink:href="#LinLibertineT-76" transform="translate(62.764633 0) scale(0.996264)"/>
      <use xlink:href="#LinLibertineT-65" transform="translate(111.481861 0) scale(0.996264)"/>
      <use xlink:href="#LinLibertineT-72" transform="translate(156.014813 0) scale(0.996264)"/>
      <use xlink:href="#LinLibertineT-61" transform="translate(193.075801 0) scale(0.996264)"/>
      <use xlink:href="#LinLibertineT-67" transform="translate(238.605033 0) scale(0.996264)"/>
      <use xlink:href="#LinLibertineT-65" transform="translate(288.418233 0) scale(0.996264)"/>
      <use xlink:href="#LinLibertineT-74" transform="translate(357.857786 0) scale(0.996264)"/>
      <use xlink:href="#LinLibertineT-69" transform="translate(389.33972 0) scale(0.996264)"/>
      <use xlink:href="#LinLibertineT-6d" transform="translate(416.338465 0) scale(0.996264)"/>
      <use xlink:href="#LinLibertineT-65" transform="translate(495.043307 0) scale(0.996264)"/>
      <use xlink:href="#LinLibertineT-28" transform="translate(564.48286 0) scale(0.996264)"/>
      <use xlink:href="#LinLibertineT-6d" transform="translate(594.171561 0) scale(0.996264)"/>
      <use xlink:href="#LinLibertineT-73" transform="translate(672.876402 0) scale(0.996264)"/>
      <use xlink:href="#LinLibertineT-2f" transform="translate(711.730729 0) scale(0.996264)"/>
      <use xlink:href="#LinLibertineT-6f" transform="translate(743.910044 0) scale(0.996264)"/>
      <use xlink:href="#LinLibertineT-70" transform="translate(794.121714 0) scale(0.996264)"/>
      <use xlink:href="#LinLibertineT-29" transform="translate(845.82781 0) scale(0.996264)"/>
     </g>
    </g>
   </g>
   <g id="matplotlib.axis_2">
    <g id="ytick_1">
     <g id="line2d_119">
      <defs>
       <path id="m1eaca1b6e2" d="M 0 0 
L -3.5 0 
" style="stroke: #000000; stroke-width: 0.8"/>
      </defs>
      <g>
       <use xlink:href="#m1eaca1b6e2" x="58.038996" y="38.551235" style="stroke: #000000; stroke-width: 0.8"/>
      </g>
     </g>
     <g id="text_9">
      <!-- parser -->
      <g transform="translate(25.564594 42.044384) scale(0.1 -0.1)">
       <use xlink:href="#LinLibertineT-70" transform="scale(0.996264)"/>
       <use xlink:href="#LinLibertineT-61" transform="translate(51.706096 0) scale(0.996264)"/>
       <use xlink:href="#LinLibertineT-72" transform="translate(97.235328 0) scale(0.996264)"/>
       <use xlink:href="#LinLibertineT-73" transform="translate(134.296316 0) scale(0.996264)"/>
       <use xlink:href="#LinLibertineT-65" transform="translate(173.150642 0) scale(0.996264)"/>
       <use xlink:href="#LinLibertineT-72" transform="translate(217.683595 0) scale(0.996264)"/>
      </g>
     </g>
    </g>
    <g id="ytick_2">
     <g id="line2d_120">
      <g>
       <use xlink:href="#m1eaca1b6e2" x="58.038996" y="83.859373" style="stroke: #000000; stroke-width: 0.8"/>
      </g>
     </g>
     <g id="text_10">
      <!-- norm tree -->
      <g transform="translate(10.8 87.352522) scale(0.1 -0.1)">
       <defs>
        <path id="LinLibertineT-6e" d="M 1178 2309 
C 1139 2264 1101 2251 1101 2309 
C 1094 2482 1082 2733 1050 2798 
C 1037 2830 1024 2849 973 2849 
C 794 2778 627 2721 186 2663 
C 173 2624 186 2522 198 2483 
C 544 2451 614 2419 614 2047 
L 614 795 
C 614 270 550 244 166 212 
C 128 173 128 39 166 0 
C 358 0 614 0 870 0 
C 1126 0 1318 0 1510 0 
C 1549 39 1549 173 1510 212 
C 1184 244 1120 270 1120 795 
L 1120 1848 
C 1120 1983 1178 2060 1229 2118 
C 1472 2355 1760 2496 2010 2496 
C 2138 2496 2272 2413 2349 2265 
C 2413 2137 2426 1964 2426 1771 
L 2426 795 
C 2426 270 2362 244 2029 212 
C 1997 173 1997 39 2029 0 
C 2221 0 2426 0 2682 0 
C 2938 0 3168 0 3360 0 
C 3392 39 3392 173 3360 212 
C 3002 244 2931 270 2931 795 
L 2931 1752 
C 2931 2105 2906 2413 2758 2612 
C 2650 2753 2451 2830 2227 2830 
C 1914 2830 1555 2746 1178 2309 
z
" transform="scale(0.015625)"/>
       </defs>
       <use xlink:href="#LinLibertineT-6e" transform="scale(0.996264)"/>
       <use xlink:href="#LinLibertineT-6f" transform="translate(53.997491 0) scale(0.996264)"/>
       <use xlink:href="#LinLibertineT-72" transform="translate(104.209161 0) scale(0.996264)"/>
       <use xlink:href="#LinLibertineT-6d" transform="translate(141.270148 0) scale(0.996264)"/>
       <use xlink:href="#LinLibertineT-74" transform="translate(244.88159 0) scale(0.996264)"/>
       <use xlink:href="#LinLibertineT-72" transform="translate(276.363524 0) scale(0.996264)"/>
       <use xlink:href="#LinLibertineT-65" transform="translate(312.627452 0) scale(0.996264)"/>
       <use xlink:href="#LinLibertineT-65" transform="translate(357.857786 0) scale(0.996264)"/>
      </g>
     </g>
    </g>
    <g id="ytick_3">
     <g id="line2d_121">
      <g>
       <use xlink:href="#m1eaca1b6e2" x="58.038996" y="129.167512" style="stroke: #000000; stroke-width: 0.8"/>
      </g>
     </g>
     <g id="text_11">
      <!-- sum tree -->
      <g transform="translate(15.751418 132.660661) scale(0.1 -0.1)">
       <defs>
        <path id="LinLibertineT-75" d="M 1389 -64 
C 1638 -64 1939 64 2253 320 
C 2285 345 2342 358 2349 313 
C 2368 154 2419 -64 2419 -64 
C 2470 -83 2502 -77 2541 -64 
C 2682 51 2906 148 3296 191 
C 3334 230 3334 326 3296 365 
C 2886 397 2829 519 2829 832 
L 2829 2060 
C 2829 2253 2854 2720 2854 2720 
C 2854 2739 2835 2758 2803 2758 
C 2771 2752 2675 2752 2579 2752 
C 2374 2752 2144 2752 1926 2752 
C 1888 2713 1888 2573 1926 2534 
C 2240 2534 2323 2457 2323 2034 
L 2323 795 
C 2323 673 2310 622 2221 545 
C 1984 340 1741 237 1581 237 
C 1389 237 1069 327 1069 896 
L 1069 2061 
C 1069 2253 1094 2720 1094 2720 
C 1094 2739 1075 2758 1043 2758 
C 1011 2752 915 2752 819 2752 
C 614 2752 384 2752 166 2752 
C 128 2714 128 2580 166 2542 
C 474 2516 563 2445 563 2031 
L 563 804 
C 563 364 755 -64 1389 -64 
z
" transform="scale(0.015625)"/>
       </defs>
       <use xlink:href="#LinLibertineT-73" transform="scale(0.996264)"/>
       <use xlink:href="#LinLibertineT-75" transform="translate(38.854327 0) scale(0.996264)"/>
       <use xlink:href="#LinLibertineT-6d" transform="translate(91.755952 0) scale(0.996264)"/>
       <use xlink:href="#LinLibertineT-74" transform="translate(195.367394 0) scale(0.996264)"/>
       <use xlink:href="#LinLibertineT-72" transform="translate(226.849327 0) scale(0.996264)"/>
       <use xlink:href="#LinLibertineT-65" transform="translate(263.113255 0) scale(0.996264)"/>
       <use xlink:href="#LinLibertineT-65" transform="translate(308.343589 0) scale(0.996264)"/>
      </g>
     </g>
    </g>
    <g id="ytick_4">
     <g id="line2d_122">
      <g>
       <use xlink:href="#m1eaca1b6e2" x="58.038996" y="174.47565" style="stroke: #000000; stroke-width: 0.8"/>
      </g>
     </g>
     <g id="text_12">
      <!-- eq 20 -->
      <g transform="translate(29.74887 177.968799) scale(0.1 -0.1)">
       <defs>
        <path id="LinLibertineT-71" d="M 2061 2387 
C 2189 2246 2214 2150 2214 1997 
L 2214 525 
C 2214 410 2208 378 2125 333 
C 1978 256 1805 256 1702 256 
C 1331 256 774 524 774 1488 
C 774 2151 1043 2624 1555 2624 
C 1747 2624 1920 2547 2061 2387 
z
M 2214 -690 
C 2214 -1234 2144 -1261 1754 -1261 
C 1715 -1300 1715 -1433 1754 -1472 
C 1978 -1472 2214 -1472 2470 -1472 
C 2726 -1472 2970 -1472 3181 -1472 
C 3219 -1433 3219 -1300 3181 -1261 
C 2790 -1261 2720 -1235 2720 -702 
L 2720 2687 
C 2720 2777 2694 2848 2624 2848 
C 2579 2848 2541 2810 2490 2739 
C 2406 2624 2381 2604 2304 2656 
C 2099 2784 1850 2842 1581 2842 
C 800 2842 224 2203 224 1360 
C 224 766 627 -26 1549 -26 
C 1722 -26 1933 12 2042 76 
C 2189 160 2214 173 2214 38 
L 2214 -690 
z
" transform="scale(0.015625)"/>
       </defs>
       <use xlink:href="#LinLibertineT-65" transform="scale(0.996264)"/>
       <use xlink:href="#LinLibertineT-71" transform="translate(45.230334 0) scale(0.996264)"/>
       <use xlink:href="#LinLibertineT-32" transform="translate(120.249033 0) scale(0.996264)"/>
       <use xlink:href="#LinLibertineT-30" transform="translate(166.575324 0) scale(0.996264)"/>
      </g>
     </g>
    </g>
    <g id="ytick_5">
     <g id="line2d_123">
      <g>
       <use xlink:href="#m1eaca1b6e2" x="58.038996" y="219.783789" style="stroke: #000000; stroke-width: 0.8"/>
      </g>
     </g>
     <g id="text_13">
      <!-- eq 40 -->
      <g transform="translate(29.74887 223.276938) scale(0.1 -0.1)">
       <use xlink:href="#LinLibertineT-65" transform="scale(0.996264)"/>
       <use xlink:href="#LinLibertineT-71" transform="translate(45.230334 0) scale(0.996264)"/>
       <use xlink:href="#LinLibertineT-34" transform="translate(120.249033 0) scale(0.996264)"/>
       <use xlink:href="#LinLibertineT-30" transform="translate(166.575324 0) scale(0.996264)"/>
      </g>
     </g>
    </g>
   </g>
   <g id="LineCollection_1">
    <path d="M 72.496011 27.2242 
L 79.257722 27.2242 
" clip-path="url(#paf4796c511)" style="fill: none; stroke: #000000; stroke-width: 1.5"/>
    <path d="M 144.784843 72.532339 
L 145.070763 72.532339 
" clip-path="url(#paf4796c511)" style="fill: none; stroke: #000000; stroke-width: 1.5"/>
    <path d="M 144.127475 117.840477 
L 144.567916 117.840477 
" clip-path="url(#paf4796c511)" style="fill: none; stroke: #000000; stroke-width: 1.5"/>
    <path d="M 144.856676 163.148616 
L 145.422969 163.148616 
" clip-path="url(#paf4796c511)" style="fill: none; stroke: #000000; stroke-width: 1.5"/>
    <path d="M 169.74342 208.456754 
L 170.772175 208.456754 
" clip-path="url(#paf4796c511)" style="fill: none; stroke: #000000; stroke-width: 1.5"/>
   </g>
   <g id="line2d_124">
    <defs>
     <path id="mbb467afd39" d="M 0 3 
L 0 -3 
" style="stroke: #000000"/>
    </defs>
    <g clip-path="url(#paf4796c511)">
     <use xlink:href="#mbb467afd39" x="72.496011" y="27.2242" style="stroke: #000000"/>
     <use xlink:href="#mbb467afd39" x="144.784843" y="72.532339" style="stroke: #000000"/>
     <use xlink:href="#mbb467afd39" x="144.127475" y="117.840477" style="stroke: #000000"/>
     <use xlink:href="#mbb467afd39" x="144.856676" y="163.148616" style="stroke: #000000"/>
     <use xlink:href="#mbb467afd39" x="169.74342" y="208.456754" style="stroke: #000000"/>
    </g>
   </g>
   <g id="line2d_125">
    <g clip-path="url(#paf4796c511)">
     <use xlink:href="#mbb467afd39" x="79.257722" y="27.2242" style="stroke: #000000"/>
     <use xlink:href="#mbb467afd39" x="145.070763" y="72.532339" style="stroke: #000000"/>
     <use xlink:href="#mbb467afd39" x="144.567916" y="117.840477" style="stroke: #000000"/>
     <use xlink:href="#mbb467afd39" x="145.422969" y="163.148616" style="stroke: #000000"/>
     <use xlink:href="#mbb467afd39" x="170.772175" y="208.456754" style="stroke: #000000"/>
    </g>
   </g>
   <g id="LineCollection_2">
    <path d="M 76.13797 38.551235 
L 79.257722 38.551235 
" clip-path="url(#paf4796c511)" style="fill: none; stroke: #000000; stroke-width: 1.5"/>
    <path d="M 146.64578 83.859373 
L 146.908447 83.859373 
" clip-path="url(#paf4796c511)" style="fill: none; stroke: #000000; stroke-width: 1.5"/>
    <path d="M 146.446682 129.167512 
L 146.843076 129.167512 
" clip-path="url(#paf4796c511)" style="fill: none; stroke: #000000; stroke-width: 1.5"/>
    <path d="M 148.78362 174.47565 
L 148.903079 174.47565 
" clip-path="url(#paf4796c511)" style="fill: none; stroke: #000000; stroke-width: 1.5"/>
    <path d="M 173.267034 219.783789 
L 173.767788 219.783789 
" clip-path="url(#paf4796c511)" style="fill: none; stroke: #000000; stroke-width: 1.5"/>
   </g>
   <g id="line2d_126">
    <g clip-path="url(#paf4796c511)">
     <use xlink:href="#mbb467afd39" x="76.13797" y="38.551235" style="stroke: #000000"/>
     <use xlink:href="#mbb467afd39" x="146.64578" y="83.859373" style="stroke: #000000"/>
     <use xlink:href="#mbb467afd39" x="146.446682" y="129.167512" style="stroke: #000000"/>
     <use xlink:href="#mbb467afd39" x="148.78362" y="174.47565" style="stroke: #000000"/>
     <use xlink:href="#mbb467afd39" x="173.267034" y="219.783789" style="stroke: #000000"/>
    </g>
   </g>
   <g id="line2d_127">
    <g clip-path="url(#paf4796c511)">
     <use xlink:href="#mbb467afd39" x="79.257722" y="38.551235" style="stroke: #000000"/>
     <use xlink:href="#mbb467afd39" x="146.908447" y="83.859373" style="stroke: #000000"/>
     <use xlink:href="#mbb467afd39" x="146.843076" y="129.167512" style="stroke: #000000"/>
     <use xlink:href="#mbb467afd39" x="148.903079" y="174.47565" style="stroke: #000000"/>
     <use xlink:href="#mbb467afd39" x="173.767788" y="219.783789" style="stroke: #000000"/>
    </g>
   </g>
   <g id="LineCollection_3">
    <path d="M 145.282769 49.878269 
L 164.947243 49.878269 
" clip-path="url(#paf4796c511)" style="fill: none; stroke: #000000; stroke-width: 1.5"/>
    <path d="M 249.186086 95.186408 
L 249.719621 95.186408 
" clip-path="url(#paf4796c511)" style="fill: none; stroke: #000000; stroke-width: 1.5"/>
    <path d="M 278.595837 140.494546 
L 278.780893 140.494546 
" clip-path="url(#paf4796c511)" style="fill: none; stroke: #000000; stroke-width: 1.5"/>
    <path d="M 307.801665 185.802685 
L 308.259999 185.802685 
" clip-path="url(#paf4796c511)" style="fill: none; stroke: #000000; stroke-width: 1.5"/>
    <path d="M 360.91922 231.110823 
L 361.636297 231.110823 
" clip-path="url(#paf4796c511)" style="fill: none; stroke: #000000; stroke-width: 1.5"/>
   </g>
   <g id="line2d_128">
    <g clip-path="url(#paf4796c511)">
     <use xlink:href="#mbb467afd39" x="145.282769" y="49.878269" style="stroke: #000000"/>
     <use xlink:href="#mbb467afd39" x="249.186086" y="95.186408" style="stroke: #000000"/>
     <use xlink:href="#mbb467afd39" x="278.595837" y="140.494546" style="stroke: #000000"/>
     <use xlink:href="#mbb467afd39" x="307.801665" y="185.802685" style="stroke: #000000"/>
     <use xlink:href="#mbb467afd39" x="360.91922" y="231.110823" style="stroke: #000000"/>
    </g>
   </g>
   <g id="line2d_129">
    <g clip-path="url(#paf4796c511)">
     <use xlink:href="#mbb467afd39" x="164.947243" y="49.878269" style="stroke: #000000"/>
     <use xlink:href="#mbb467afd39" x="249.719621" y="95.186408" style="stroke: #000000"/>
     <use xlink:href="#mbb467afd39" x="278.780893" y="140.494546" style="stroke: #000000"/>
     <use xlink:href="#mbb467afd39" x="308.259999" y="185.802685" style="stroke: #000000"/>
     <use xlink:href="#mbb467afd39" x="361.636297" y="231.110823" style="stroke: #000000"/>
    </g>
   </g>
   <g id="patch_18">
    <path d="M 58.038996 247.535024 
L 58.038996 10.8 
" style="fill: none; stroke: #000000; stroke-width: 0.8; stroke-linejoin: miter; stroke-linecap: square"/>
   </g>
   <g id="patch_19">
    <path d="M 376.093311 247.535024 
L 376.093311 10.8 
" style="fill: none; stroke: #000000; stroke-width: 0.8; stroke-linejoin: miter; stroke-linecap: square"/>
   </g>
   <g id="patch_20">
    <path d="M 58.038996 247.535024 
L 376.093311 247.535024 
" style="fill: none; stroke: #000000; stroke-width: 0.8; stroke-linejoin: miter; stroke-linecap: square"/>
   </g>
   <g id="patch_21">
    <path d="M 58.038996 10.8 
L 376.093311 10.8 
" style="fill: none; stroke: #000000; stroke-width: 0.8; stroke-linejoin: miter; stroke-linecap: square"/>
   </g>
   <g id="text_14">
    <g id="patch_22">
     <path d="M 80.18254 34.11261 
L 118.558603 34.11261 
Q 121.258603 34.11261 121.258603 31.41261 
L 121.258603 23.03579 
Q 121.258603 20.33579 118.558603 20.33579 
L 80.18254 20.33579 
Q 77.48254 20.33579 77.48254 23.03579 
L 77.48254 31.41261 
Q 77.48254 34.11261 80.18254 34.11261 
z
" style="fill: #ffffff; opacity: 0.5"/>
    </g>
    <!-- 0.01  0.00 -->
    <g transform="translate(80.18254 29.32346) scale(0.09 -0.09)">
     <defs>
      <path id="LinLibertineT-2e" d="M 365 276 
C 365 90 518 -64 704 -64 
C 890 -64 1043 90 1043 276 
C 1043 462 890 616 704 616 
C 518 616 365 462 365 276 
z
" transform="scale(0.015625)"/>
      <path id="LinLibertineT-b1" d="M 1600 3344 
L 1600 2304 
L 544 2304 
C 467 2304 384 2182 384 2086 
C 384 2035 422 1984 480 1984 
L 1600 1984 
L 1600 916 
C 1600 860 1651 822 1702 822 
C 1798 822 1920 903 1920 979 
L 1920 1984 
L 2963 1984 
C 3046 1984 3136 2131 3136 2195 
C 3136 2247 3110 2304 3046 2304 
L 1920 2304 
L 1920 3428 
C 1920 3495 1862 3520 1811 3520 
C 1747 3520 1600 3428 1600 3344 
z
M 2963 256 
C 3046 256 3136 404 3136 468 
C 3136 519 3110 577 3046 577 
L 544 577 
C 467 577 384 455 384 359 
C 384 308 422 256 480 256 
L 2963 256 
z
" transform="scale(0.015625)"/>
     </defs>
     <use xlink:href="#LinLibertineT-30" transform="scale(0.996264)"/>
     <use xlink:href="#LinLibertineT-2e" transform="translate(46.326292 0) scale(0.996264)"/>
     <use xlink:href="#LinLibertineT-30" transform="translate(68.244115 0) scale(0.996264)"/>
     <use xlink:href="#LinLibertineT-31" transform="translate(114.570407 0) scale(0.996264)"/>
     <use xlink:href="#LinLibertineT-b1" transform="translate(185.803299 0) scale(0.996264)"/>
     <use xlink:href="#LinLibertineT-30" transform="translate(265.504435 0) scale(0.996264)"/>
     <use xlink:href="#LinLibertineT-2e" transform="translate(311.830726 0) scale(0.996264)"/>
     <use xlink:href="#LinLibertineT-30" transform="translate(333.74855 0) scale(0.996264)"/>
     <use xlink:href="#LinLibertineT-30" transform="translate(380.074841 0) scale(0.996264)"/>
    </g>
   </g>
   <g id="text_15">
    <g id="patch_23">
     <path d="M 146.127677 79.420749 
L 184.503741 79.420749 
Q 187.203741 79.420749 187.203741 76.720749 
L 187.203741 68.343928 
Q 187.203741 65.643928 184.503741 65.643928 
L 146.127677 65.643928 
Q 143.427677 65.643928 143.427677 68.343928 
L 143.427677 76.720749 
Q 143.427677 79.420749 146.127677 79.420749 
z
" style="fill: #ffffff; opacity: 0.5"/>
    </g>
    <!-- 0.30  0.00 -->
    <g transform="translate(146.127677 74.631598) scale(0.09 -0.09)">
     <use xlink:href="#LinLibertineT-30" transform="scale(0.996264)"/>
     <use xlink:href="#LinLibertineT-2e" transform="translate(46.326292 0) scale(0.996264)"/>
     <use xlink:href="#LinLibertineT-33" transform="translate(68.244115 0) scale(0.996264)"/>
     <use xlink:href="#LinLibertineT-30" transform="translate(114.570407 0) scale(0.996264)"/>
     <use xlink:href="#LinLibertineT-b1" transform="translate(185.803299 0) scale(0.996264)"/>
     <use xlink:href="#LinLibertineT-30" transform="translate(265.504435 0) scale(0.996264)"/>
     <use xlink:href="#LinLibertineT-2e" transform="translate(311.830726 0) scale(0.996264)"/>
     <use xlink:href="#LinLibertineT-30" transform="translate(333.74855 0) scale(0.996264)"/>
     <use xlink:href="#LinLibertineT-30" transform="translate(380.074841 0) scale(0.996264)"/>
    </g>
   </g>
   <g id="text_16">
    <g id="patch_24">
     <path d="M 145.62121 124.728887 
L 183.997273 124.728887 
Q 186.697273 124.728887 186.697273 122.028887 
L 186.697273 113.652067 
Q 186.697273 110.952067 183.997273 110.952067 
L 145.62121 110.952067 
Q 142.92121 110.952067 142.92121 113.652067 
L 142.92121 122.028887 
Q 142.92121 124.728887 145.62121 124.728887 
z
" style="fill: #ffffff; opacity: 0.5"/>
    </g>
    <!-- 0.30  0.00 -->
    <g transform="translate(145.62121 119.939737) scale(0.09 -0.09)">
     <use xlink:href="#LinLibertineT-30" transform="scale(0.996264)"/>
     <use xlink:href="#LinLibertineT-2e" transform="translate(46.326292 0) scale(0.996264)"/>
     <use xlink:href="#LinLibertineT-33" transform="translate(68.244115 0) scale(0.996264)"/>
     <use xlink:href="#LinLibertineT-30" transform="translate(114.570407 0) scale(0.996264)"/>
     <use xlink:href="#LinLibertineT-b1" transform="translate(185.803299 0) scale(0.996264)"/>
     <use xlink:href="#LinLibertineT-30" transform="translate(265.504435 0) scale(0.996264)"/>
     <use xlink:href="#LinLibertineT-2e" transform="translate(311.830726 0) scale(0.996264)"/>
     <use xlink:href="#LinLibertineT-30" transform="translate(333.74855 0) scale(0.996264)"/>
     <use xlink:href="#LinLibertineT-30" transform="translate(380.074841 0) scale(0.996264)"/>
    </g>
   </g>
   <g id="text_17">
    <g id="patch_25">
     <path d="M 146.473334 170.037026 
L 184.849397 170.037026 
Q 187.549397 170.037026 187.549397 167.337026 
L 187.549397 158.960205 
Q 187.549397 156.260205 184.849397 156.260205 
L 146.473334 156.260205 
Q 143.773334 156.260205 143.773334 158.960205 
L 143.773334 167.337026 
Q 143.773334 170.037026 146.473334 170.037026 
z
" style="fill: #ffffff; opacity: 0.5"/>
    </g>
    <!-- 0.31  0.00 -->
    <g transform="translate(146.473334 165.247875) scale(0.09 -0.09)">
     <use xlink:href="#LinLibertineT-30" transform="scale(0.996264)"/>
     <use xlink:href="#LinLibertineT-2e" transform="translate(46.326292 0) scale(0.996264)"/>
     <use xlink:href="#LinLibertineT-33" transform="translate(68.244115 0) scale(0.996264)"/>
     <use xlink:href="#LinLibertineT-31" transform="translate(114.570407 0) scale(0.996264)"/>
     <use xlink:href="#LinLibertineT-b1" transform="translate(185.803299 0) scale(0.996264)"/>
     <use xlink:href="#LinLibertineT-30" transform="translate(265.504435 0) scale(0.996264)"/>
     <use xlink:href="#LinLibertineT-2e" transform="translate(311.830726 0) scale(0.996264)"/>
     <use xlink:href="#LinLibertineT-30" transform="translate(333.74855 0) scale(0.996264)"/>
     <use xlink:href="#LinLibertineT-30" transform="translate(380.074841 0) scale(0.996264)"/>
    </g>
   </g>
   <g id="text_18">
    <g id="patch_26">
     <path d="M 171.811915 215.345164 
L 210.187978 215.345164 
Q 212.887978 215.345164 212.887978 212.645164 
L 212.887978 204.268344 
Q 212.887978 201.568344 210.187978 201.568344 
L 171.811915 201.568344 
Q 169.111915 201.568344 169.111915 204.268344 
L 169.111915 212.645164 
Q 169.111915 215.345164 171.811915 215.345164 
z
" style="fill: #ffffff; opacity: 0.5"/>
    </g>
    <!-- 0.97  0.02 -->
    <g transform="translate(171.811915 210.556014) scale(0.09 -0.09)">
     <defs>
      <path id="LinLibertineT-39" d="M 2150 1837 
C 1939 1696 1728 1696 1619 1696 
C 992 1696 851 2309 851 2628 
C 851 3329 1120 3648 1434 3648 
C 1837 3648 2202 3430 2202 2336 
C 2202 2195 2189 2022 2150 1837 
z
M 2093 1613 
C 1920 1029 1510 381 659 61 
C 659 -16 685 -74 736 -106 
C 1382 86 1779 355 2138 771 
C 2534 1231 2733 1813 2733 2318 
C 2733 3617 1997 3872 1504 3872 
C 666 3872 320 3062 320 2512 
C 320 1964 614 1472 1485 1472 
C 1651 1472 1901 1523 2093 1613 
z
" transform="scale(0.015625)"/>
      <path id="LinLibertineT-37" d="M 1088 3456 
L 2234 3456 
C 1734 2210 1229 957 794 -19 
L 845 -64 
L 1280 -64 
C 1645 1033 1997 2105 2714 3866 
L 2611 3944 
C 2502 3912 2362 3873 2118 3873 
L 800 3873 
C 582 3873 595 3937 480 3963 
C 461 3963 454 3963 454 3944 
C 448 3635 378 3249 326 2915 
C 397 2895 461 2889 531 2895 
C 672 3411 883 3456 1088 3456 
z
" transform="scale(0.015625)"/>
     </defs>
     <use xlink:href="#LinLibertineT-30" transform="scale(0.996264)"/>
     <use xlink:href="#LinLibertineT-2e" transform="translate(46.326292 0) scale(0.996264)"/>
     <use xlink:href="#LinLibertineT-39" transform="translate(68.244115 0) scale(0.996264)"/>
     <use xlink:href="#LinLibertineT-37" transform="translate(114.570407 0) scale(0.996264)"/>
     <use xlink:href="#LinLibertineT-b1" transform="translate(185.803299 0) scale(0.996264)"/>
     <use xlink:href="#LinLibertineT-30" transform="translate(265.504435 0) scale(0.996264)"/>
     <use xlink:href="#LinLibertineT-2e" transform="translate(311.830726 0) scale(0.996264)"/>
     <use xlink:href="#LinLibertineT-30" transform="translate(333.74855 0) scale(0.996264)"/>
     <use xlink:href="#LinLibertineT-32" transform="translate(380.074841 0) scale(0.996264)"/>
    </g>
   </g>
   <g id="text_19">
    <g id="patch_27">
     <path d="M 80.252081 45.439645 
L 118.628144 45.439645 
Q 121.328144 45.439645 121.328144 42.739645 
L 121.328144 34.362825 
Q 121.328144 31.662825 118.628144 31.662825 
L 80.252081 31.662825 
Q 77.552081 31.662825 77.552081 34.362825 
L 77.552081 42.739645 
Q 77.552081 45.439645 80.252081 45.439645 
z
" style="fill: #ffffff; opacity: 0.5"/>
    </g>
    <!-- 0.01  0.00 -->
    <g transform="translate(80.252081 40.650495) scale(0.09 -0.09)">
     <use xlink:href="#LinLibertineT-30" transform="scale(0.996264)"/>
     <use xlink:href="#LinLibertineT-2e" transform="translate(46.326292 0) scale(0.996264)"/>
     <use xlink:href="#LinLibertineT-30" transform="translate(68.244115 0) scale(0.996264)"/>
     <use xlink:href="#LinLibertineT-31" transform="translate(114.570407 0) scale(0.996264)"/>
     <use xlink:href="#LinLibertineT-b1" transform="translate(185.803299 0) scale(0.996264)"/>
     <use xlink:href="#LinLibertineT-30" transform="translate(265.504435 0) scale(0.996264)"/>
     <use xlink:href="#LinLibertineT-2e" transform="translate(311.830726 0) scale(0.996264)"/>
     <use xlink:href="#LinLibertineT-30" transform="translate(333.74855 0) scale(0.996264)"/>
     <use xlink:href="#LinLibertineT-30" transform="translate(380.074841 0) scale(0.996264)"/>
    </g>
   </g>
   <g id="text_20">
    <g id="patch_28">
     <path d="M 147.965908 90.747784 
L 186.341971 90.747784 
Q 189.041971 90.747784 189.041971 88.047784 
L 189.041971 79.670963 
Q 189.041971 76.970963 186.341971 76.970963 
L 147.965908 76.970963 
Q 145.265908 76.970963 145.265908 79.670963 
L 145.265908 88.047784 
Q 145.265908 90.747784 147.965908 90.747784 
z
" style="fill: #ffffff; opacity: 0.5"/>
    </g>
    <!-- 0.33  0.00 -->
    <g transform="translate(147.965908 85.958633) scale(0.09 -0.09)">
     <use xlink:href="#LinLibertineT-30" transform="scale(0.996264)"/>
     <use xlink:href="#LinLibertineT-2e" transform="translate(46.326292 0) scale(0.996264)"/>
     <use xlink:href="#LinLibertineT-33" transform="translate(68.244115 0) scale(0.996264)"/>
     <use xlink:href="#LinLibertineT-33" transform="translate(114.570407 0) scale(0.996264)"/>
     <use xlink:href="#LinLibertineT-b1" transform="translate(185.803299 0) scale(0.996264)"/>
     <use xlink:href="#LinLibertineT-30" transform="translate(265.504435 0) scale(0.996264)"/>
     <use xlink:href="#LinLibertineT-2e" transform="translate(311.830726 0) scale(0.996264)"/>
     <use xlink:href="#LinLibertineT-30" transform="translate(333.74855 0) scale(0.996264)"/>
     <use xlink:href="#LinLibertineT-30" transform="translate(380.074841 0) scale(0.996264)"/>
    </g>
   </g>
   <g id="text_21">
    <g id="patch_29">
     <path d="M 147.8974 136.055922 
L 186.273463 136.055922 
Q 188.973463 136.055922 188.973463 133.355922 
L 188.973463 124.979102 
Q 188.973463 122.279102 186.273463 122.279102 
L 147.8974 122.279102 
Q 145.1974 122.279102 145.1974 124.979102 
L 145.1974 133.355922 
Q 145.1974 136.055922 147.8974 136.055922 
z
" style="fill: #ffffff; opacity: 0.5"/>
    </g>
    <!-- 0.33  0.00 -->
    <g transform="translate(147.8974 131.266772) scale(0.09 -0.09)">
     <use xlink:href="#LinLibertineT-30" transform="scale(0.996264)"/>
     <use xlink:href="#LinLibertineT-2e" transform="translate(46.326292 0) scale(0.996264)"/>
     <use xlink:href="#LinLibertineT-33" transform="translate(68.244115 0) scale(0.996264)"/>
     <use xlink:href="#LinLibertineT-33" transform="translate(114.570407 0) scale(0.996264)"/>
     <use xlink:href="#LinLibertineT-b1" transform="translate(185.803299 0) scale(0.996264)"/>
     <use xlink:href="#LinLibertineT-30" transform="translate(265.504435 0) scale(0.996264)"/>
     <use xlink:href="#LinLibertineT-2e" transform="translate(311.830726 0) scale(0.996264)"/>
     <use xlink:href="#LinLibertineT-30" transform="translate(333.74855 0) scale(0.996264)"/>
     <use xlink:href="#LinLibertineT-30" transform="translate(380.074841 0) scale(0.996264)"/>
    </g>
   </g>
   <g id="text_22">
    <g id="patch_30">
     <path d="M 149.96392 181.364061 
L 188.339984 181.364061 
Q 191.039984 181.364061 191.039984 178.664061 
L 191.039984 170.28724 
Q 191.039984 167.58724 188.339984 167.58724 
L 149.96392 167.58724 
Q 147.26392 167.58724 147.26392 170.28724 
L 147.26392 178.664061 
Q 147.26392 181.364061 149.96392 181.364061 
z
" style="fill: #ffffff; opacity: 0.5"/>
    </g>
    <!-- 0.36  0.00 -->
    <g transform="translate(149.96392 176.57491) scale(0.09 -0.09)">
     <defs>
      <path id="LinLibertineT-36" d="M 864 1971 
C 1075 2112 1286 2112 1395 2112 
C 2022 2112 2163 1500 2163 1181 
C 2163 480 1894 161 1581 161 
C 1178 161 813 378 813 1473 
C 813 1619 826 1786 864 1971 
z
M 922 2202 
C 1094 2786 1504 3433 2355 3754 
C 2355 3831 2330 3889 2278 3921 
C 1632 3728 1235 3459 877 3043 
C 480 2582 282 1999 282 1493 
C 282 193 1018 -64 1510 -64 
C 2349 -64 2694 749 2694 1300 
C 2694 1850 2400 2343 1530 2343 
C 1363 2343 1114 2292 922 2202 
z
" transform="scale(0.015625)"/>
     </defs>
     <use xlink:href="#LinLibertineT-30" transform="scale(0.996264)"/>
     <use xlink:href="#LinLibertineT-2e" transform="translate(46.326292 0) scale(0.996264)"/>
     <use xlink:href="#LinLibertineT-33" transform="translate(68.244115 0) scale(0.996264)"/>
     <use xlink:href="#LinLibertineT-36" transform="translate(114.570407 0) scale(0.996264)"/>
     <use xlink:href="#LinLibertineT-b1" transform="translate(185.803299 0) scale(0.996264)"/>
     <use xlink:href="#LinLibertineT-30" transform="translate(265.504435 0) scale(0.996264)"/>
     <use xlink:href="#LinLibertineT-2e" transform="translate(311.830726 0) scale(0.996264)"/>
     <use xlink:href="#LinLibertineT-30" transform="translate(333.74855 0) scale(0.996264)"/>
     <use xlink:href="#LinLibertineT-30" transform="translate(380.074841 0) scale(0.996264)"/>
    </g>
   </g>
   <g id="text_23">
    <g id="patch_31">
     <path d="M 174.819676 226.672199 
L 213.195739 226.672199 
Q 215.895739 226.672199 215.895739 223.972199 
L 215.895739 215.595378 
Q 215.895739 212.895378 213.195739 212.895378 
L 174.819676 212.895378 
Q 172.119676 212.895378 172.119676 215.595378 
L 172.119676 223.972199 
Q 172.119676 226.672199 174.819676 226.672199 
z
" style="fill: #ffffff; opacity: 0.5"/>
    </g>
    <!-- 1.13  0.01 -->
    <g transform="translate(174.819676 221.883048) scale(0.09 -0.09)">
     <use xlink:href="#LinLibertineT-31" transform="scale(0.996264)"/>
     <use xlink:href="#LinLibertineT-2e" transform="translate(46.326292 0) scale(0.996264)"/>
     <use xlink:href="#LinLibertineT-31" transform="translate(68.244115 0) scale(0.996264)"/>
     <use xlink:href="#LinLibertineT-33" transform="translate(114.570407 0) scale(0.996264)"/>
     <use xlink:href="#LinLibertineT-b1" transform="translate(185.803299 0) scale(0.996264)"/>
     <use xlink:href="#LinLibertineT-30" transform="translate(265.504435 0) scale(0.996264)"/>
     <use xlink:href="#LinLibertineT-2e" transform="translate(311.830726 0) scale(0.996264)"/>
     <use xlink:href="#LinLibertineT-30" transform="translate(333.74855 0) scale(0.996264)"/>
     <use xlink:href="#LinLibertineT-31" transform="translate(380.074841 0) scale(0.996264)"/>
    </g>
   </g>
   <g id="text_24">
    <g id="patch_32">
     <path d="M 165.700264 56.76668 
L 204.076327 56.76668 
Q 206.776327 56.76668 206.776327 54.06668 
L 206.776327 45.689859 
Q 206.776327 42.989859 204.076327 42.989859 
L 165.700264 42.989859 
Q 163.000264 42.989859 163.000264 45.689859 
L 163.000264 54.06668 
Q 163.000264 56.76668 165.700264 56.76668 
z
" style="fill: #ffffff; opacity: 0.5"/>
    </g>
    <!-- 0.54  0.23 -->
    <g transform="translate(165.700264 51.977529) scale(0.09 -0.09)">
     <defs>
      <path id="LinLibertineT-35" d="M 2042 1210 
C 2042 606 1722 161 1338 161 
C 1094 161 1011 320 915 448 
C 832 556 723 651 589 651 
C 467 651 346 543 346 414 
C 346 154 890 -64 1254 -64 
C 2048 -64 2611 523 2611 1325 
C 2611 1943 2182 2497 1466 2497 
C 1190 2497 954 2439 838 2394 
L 966 3461 
C 1203 3439 1408 3410 1715 3410 
C 1907 3410 2125 3410 2387 3436 
L 2490 3878 
L 2445 3904 
C 2080 3867 1734 3840 1395 3840 
C 1158 3840 928 3840 704 3865 
L 486 2024 
C 826 2150 1069 2176 1299 2176 
C 1715 2176 2042 1902 2042 1210 
z
" transform="scale(0.015625)"/>
     </defs>
     <use xlink:href="#LinLibertineT-30" transform="scale(0.996264)"/>
     <use xlink:href="#LinLibertineT-2e" transform="translate(46.326292 0) scale(0.996264)"/>
     <use xlink:href="#LinLibertineT-35" transform="translate(68.244115 0) scale(0.996264)"/>
     <use xlink:href="#LinLibertineT-34" transform="translate(114.570407 0) scale(0.996264)"/>
     <use xlink:href="#LinLibertineT-b1" transform="translate(185.803299 0) scale(0.996264)"/>
     <use xlink:href="#LinLibertineT-30" transform="translate(265.504435 0) scale(0.996264)"/>
     <use xlink:href="#LinLibertineT-2e" transform="translate(311.830726 0) scale(0.996264)"/>
     <use xlink:href="#LinLibertineT-32" transform="translate(333.74855 0) scale(0.996264)"/>
     <use xlink:href="#LinLibertineT-33" transform="translate(380.074841 0) scale(0.996264)"/>
    </g>
   </g>
   <g id="text_25">
    <g id="patch_33">
     <path d="M 250.770746 102.074818 
L 293.316172 102.074818 
Q 296.016172 102.074818 296.016172 99.374818 
L 296.016172 90.997998 
Q 296.016172 88.297998 293.316172 88.297998 
L 250.770746 88.297998 
Q 248.070746 88.297998 248.070746 90.997998 
L 248.070746 99.374818 
Q 248.070746 102.074818 250.770746 102.074818 
z
" style="fill: #ffffff; opacity: 0.5"/>
    </g>
    <!-- 36.86  0.45 -->
    <g transform="translate(250.770746 97.285668) scale(0.09 -0.09)">
     <defs>
      <path id="LinLibertineT-38" d="M 1498 3680 
C 1914 3680 2067 3405 2067 3110 
C 2067 2765 1728 2477 1555 2349 
L 1357 2471 
C 954 2733 909 2944 909 3142 
C 909 3437 1114 3680 1498 3680 
z
M 2515 3104 
C 2515 3565 2157 3904 1530 3904 
C 877 3904 454 3514 454 3020 
C 454 2662 627 2399 1018 2156 
L 1184 2054 
C 998 1958 826 1843 666 1702 
C 403 1471 294 1184 294 934 
C 294 281 755 -64 1434 -64 
C 2272 -64 2682 551 2682 1037 
C 2682 1408 2522 1734 2182 1939 
L 1728 2214 
C 2029 2362 2515 2694 2515 3104 
z
M 1446 160 
C 1158 160 723 359 723 934 
C 723 1127 806 1575 1357 1939 
L 1658 1760 
C 2054 1517 2214 1217 2214 909 
C 2214 269 1734 160 1446 160 
z
" transform="scale(0.015625)"/>
     </defs>
     <use xlink:href="#LinLibertineT-33" transform="scale(0.996264)"/>
     <use xlink:href="#LinLibertineT-36" transform="translate(46.326292 0) scale(0.996264)"/>
     <use xlink:href="#LinLibertineT-2e" transform="translate(92.652583 0) scale(0.996264)"/>
     <use xlink:href="#LinLibertineT-38" transform="translate(114.570407 0) scale(0.996264)"/>
     <use xlink:href="#LinLibertineT-36" transform="translate(160.896698 0) scale(0.996264)"/>
     <use xlink:href="#LinLibertineT-b1" transform="translate(232.12959 0) scale(0.996264)"/>
     <use xlink:href="#LinLibertineT-30" transform="translate(311.830726 0) scale(0.996264)"/>
     <use xlink:href="#LinLibertineT-2e" transform="translate(358.157018 0) scale(0.996264)"/>
     <use xlink:href="#LinLibertineT-34" transform="translate(380.074841 0) scale(0.996264)"/>
     <use xlink:href="#LinLibertineT-35" transform="translate(426.401133 0) scale(0.996264)"/>
    </g>
   </g>
   <g id="text_26">
    <g id="patch_34">
     <path d="M 279.840183 147.382957 
L 326.554971 147.382957 
Q 329.254971 147.382957 329.254971 144.682957 
L 329.254971 136.306136 
Q 329.254971 133.606136 326.554971 133.606136 
L 279.840183 133.606136 
Q 277.140183 133.606136 277.140183 136.306136 
L 277.140183 144.682957 
Q 277.140183 147.382957 279.840183 147.382957 
z
" style="fill: #ffffff; opacity: 0.5"/>
    </g>
    <!-- 140.90  0.60 -->
    <g transform="translate(279.840183 142.593806) scale(0.09 -0.09)">
     <use xlink:href="#LinLibertineT-31" transform="scale(0.996264)"/>
     <use xlink:href="#LinLibertineT-34" transform="translate(46.326292 0) scale(0.996264)"/>
     <use xlink:href="#LinLibertineT-30" transform="translate(92.652583 0) scale(0.996264)"/>
     <use xlink:href="#LinLibertineT-2e" transform="translate(138.978875 0) scale(0.996264)"/>
     <use xlink:href="#LinLibertineT-39" transform="translate(160.896698 0) scale(0.996264)"/>
     <use xlink:href="#LinLibertineT-30" transform="translate(207.22299 0) scale(0.996264)"/>
     <use xlink:href="#LinLibertineT-b1" transform="translate(278.455882 0) scale(0.996264)"/>
     <use xlink:href="#LinLibertineT-30" transform="translate(358.157018 0) scale(0.996264)"/>
     <use xlink:href="#LinLibertineT-2e" transform="translate(404.48331 0) scale(0.996264)"/>
     <use xlink:href="#LinLibertineT-36" transform="translate(426.401133 0) scale(0.996264)"/>
     <use xlink:href="#LinLibertineT-30" transform="translate(472.727425 0) scale(0.996264)"/>
    </g>
   </g>
   <g id="text_27">
    <g id="patch_35">
     <path d="M 309.312876 192.691095 
L 356.027665 192.691095 
Q 358.727665 192.691095 358.727665 189.991095 
L 358.727665 181.614275 
Q 358.727665 178.914275 356.027665 178.914275 
L 309.312876 178.914275 
Q 306.612876 178.914275 306.612876 181.614275 
L 306.612876 189.991095 
Q 306.612876 192.691095 309.312876 192.691095 
z
" style="fill: #ffffff; opacity: 0.5"/>
    </g>
    <!-- 541.32  5.69 -->
    <g transform="translate(309.312876 187.901945) scale(0.09 -0.09)">
     <use xlink:href="#LinLibertineT-35" transform="scale(0.996264)"/>
     <use xlink:href="#LinLibertineT-34" transform="translate(46.326292 0) scale(0.996264)"/>
     <use xlink:href="#LinLibertineT-31" transform="translate(92.652583 0) scale(0.996264)"/>
     <use xlink:href="#LinLibertineT-2e" transform="translate(138.978875 0) scale(0.996264)"/>
     <use xlink:href="#LinLibertineT-33" transform="translate(160.896698 0) scale(0.996264)"/>
     <use xlink:href="#LinLibertineT-32" transform="translate(207.22299 0) scale(0.996264)"/>
     <use xlink:href="#LinLibertineT-b1" transform="translate(278.455882 0) scale(0.996264)"/>
     <use xlink:href="#LinLibertineT-35" transform="translate(358.157018 0) scale(0.996264)"/>
     <use xlink:href="#LinLibertineT-2e" transform="translate(404.48331 0) scale(0.996264)"/>
     <use xlink:href="#LinLibertineT-36" transform="translate(426.401133 0) scale(0.996264)"/>
     <use xlink:href="#LinLibertineT-39" transform="translate(472.727425 0) scale(0.996264)"/>
    </g>
   </g>
   <g id="text_28">
    <g id="patch_36">
     <path d="M 362.683173 237.999234 
L 421.906049 237.999234 
Q 424.606049 237.999234 424.606049 235.299234 
L 424.606049 226.922413 
Q 424.606049 224.222413 421.906049 224.222413 
L 362.683173 224.222413 
Q 359.983173 224.222413 359.983173 226.922413 
L 359.983173 235.299234 
Q 359.983173 237.999234 362.683173 237.999234 
z
" style="fill: #ffffff; opacity: 0.5"/>
    </g>
    <!-- 6226.00  102.38 -->
    <g transform="translate(362.683173 233.210083) scale(0.09 -0.09)">
     <use xlink:href="#LinLibertineT-36" transform="scale(0.996264)"/>
     <use xlink:href="#LinLibertineT-32" transform="translate(46.326292 0) scale(0.996264)"/>
     <use xlink:href="#LinLibertineT-32" transform="translate(92.652583 0) scale(0.996264)"/>
     <use xlink:href="#LinLibertineT-36" transform="translate(138.978875 0) scale(0.996264)"/>
     <use xlink:href="#LinLibertineT-2e" transform="translate(185.305167 0) scale(0.996264)"/>
     <use xlink:href="#LinLibertineT-30" transform="translate(207.22299 0) scale(0.996264)"/>
     <use xlink:href="#LinLibertineT-30" transform="translate(253.549282 0) scale(0.996264)"/>
     <use xlink:href="#LinLibertineT-b1" transform="translate(324.782174 0) scale(0.996264)"/>
     <use xlink:href="#LinLibertineT-31" transform="translate(404.48331 0) scale(0.996264)"/>
     <use xlink:href="#LinLibertineT-30" transform="translate(450.809601 0) scale(0.996264)"/>
     <use xlink:href="#LinLibertineT-32" transform="translate(497.135893 0) scale(0.996264)"/>
     <use xlink:href="#LinLibertineT-2e" transform="translate(543.462185 0) scale(0.996264)"/>
     <use xlink:href="#LinLibertineT-33" transform="translate(565.380008 0) scale(0.996264)"/>
     <use xlink:href="#LinLibertineT-38" transform="translate(611.7063 0) scale(0.996264)"/>
    </g>
   </g>
   <g id="legend_1">
    <g id="patch_37">
     <path d="M 289.618928 26.8 
L 309.618928 26.8 
L 309.618928 19.8 
L 289.618928 19.8 
z
" style="fill: #1f77b4; stroke: #000000; stroke-width: 0.7; stroke-linejoin: miter"/>
    </g>
    <g id="text_29">
     <!-- NbE -->
     <g transform="translate(317.618928 26.8) scale(0.1 -0.1)">
      <defs>
       <path id="LinLibertineT-4e" d="M 3558 3256 
L 3558 1158 
C 3558 1036 3558 965 3514 965 
C 3488 965 3392 1082 3206 1320 
L 1011 4122 
L 147 4122 
C 109 4082 109 3943 147 3904 
C 422 3904 614 3674 653 3505 
L 653 828 
C 653 257 544 219 96 174 
C 58 135 58 1 96 -38 
C 371 -38 659 -38 813 -38 
C 960 -38 1254 -38 1523 -38 
C 1562 1 1562 135 1523 174 
C 1075 219 966 244 966 829 
L 966 2793 
C 966 3011 966 3107 1018 3107 
C 1056 3107 1126 3036 1235 2894 
L 3469 58 
C 3539 -38 3622 -96 3725 -96 
C 3814 -96 3872 -19 3872 103 
L 3872 3255 
C 3872 3827 3981 3865 4429 3910 
C 4467 3948 4467 4083 4429 4122 
C 4166 4122 3866 4122 3712 4122 
C 3578 4122 3283 4122 3002 4122 
C 2963 4083 2963 3948 3002 3910 
C 3450 3865 3558 3839 3558 3256 
z
" transform="scale(0.015625)"/>
       <path id="LinLibertineT-62" d="M 1114 2328 
C 1280 2476 1472 2533 1658 2533 
C 2048 2533 2368 2059 2368 1437 
C 2368 706 2074 154 1466 154 
C 1267 154 1133 295 1005 455 
L 1005 2059 
C 1005 2193 1030 2258 1114 2328 
z
M 1069 2527 
C 1030 2489 1005 2501 1005 2559 
L 1005 3741 
C 1005 4159 1030 4416 1030 4416 
C 1030 4460 1005 4480 947 4480 
C 787 4414 307 4320 51 4300 
C 38 4246 51 4140 90 4100 
C 422 4100 499 4132 499 3592 
L 499 456 
C 499 205 493 90 474 0 
C 506 -42 538 -64 614 -64 
C 653 -38 717 19 768 77 
C 832 154 870 154 941 96 
C 1088 -26 1280 -64 1504 -64 
C 2157 -64 2918 532 2918 1552 
C 2918 2335 2342 2816 1786 2816 
C 1510 2816 1267 2707 1069 2527 
z
" transform="scale(0.015625)"/>
       <path id="LinLibertineT-45" d="M 1798 2304 
L 1216 2304 
L 1216 3474 
C 1216 3760 1293 3890 1638 3890 
L 2118 3890 
C 2598 3890 2701 3632 2842 3187 
C 2918 3174 2989 3187 3053 3219 
C 3021 3485 2925 4108 2912 4160 
C 2912 4160 2906 4160 2886 4160 
C 2778 4160 2726 4160 2573 4160 
L 941 4160 
C 749 4160 371 4160 115 4160 
C 77 4119 77 3975 115 3935 
C 563 3935 672 3903 672 3366 
L 672 779 
C 672 243 563 211 115 211 
C 77 172 77 39 115 0 
C 352 0 736 0 947 0 
L 2323 0 
C 2630 0 3142 0 3142 0 
C 3232 318 3328 738 3379 1062 
C 3315 1101 3238 1114 3155 1094 
C 3027 634 2803 256 2317 256 
L 1574 256 
C 1306 256 1216 358 1216 656 
L 1216 2061 
L 1798 2061 
C 2342 2061 2362 1917 2381 1637 
C 2419 1600 2554 1600 2592 1637 
C 2586 1804 2579 1984 2579 2202 
C 2579 2381 2586 2600 2592 2753 
C 2554 2793 2419 2793 2381 2753 
C 2362 2391 2342 2304 1798 2304 
z
" transform="scale(0.015625)"/>
      </defs>
      <use xlink:href="#LinLibertineT-4e" transform="scale(0.996264)"/>
      <use xlink:href="#LinLibertineT-62" transform="translate(69.638879 0) scale(0.996264)"/>
      <use xlink:href="#LinLibertineT-45" transform="translate(118.754697 0) scale(0.996264)"/>
     </g>
    </g>
    <g id="patch_38">
     <path d="M 289.618928 41.121282 
L 309.618928 41.121282 
L 309.618928 34.121282 
L 289.618928 34.121282 
z
" style="fill: #ff7f0e; stroke: #000000; stroke-width: 0.7; stroke-linejoin: miter"/>
    </g>
    <g id="text_30">
     <!-- HOAS -->
     <g transform="translate(317.618928 41.121282) scale(0.1 -0.1)">
      <defs>
       <path id="LinLibertineT-48" d="M 3955 780 
L 3955 3372 
C 3955 3910 4064 3942 4512 3942 
C 4550 3981 4550 4120 4512 4160 
C 4250 4160 3923 4160 3680 4160 
C 3443 4160 3136 4160 2854 4160 
C 2816 4120 2816 3981 2854 3942 
C 3302 3942 3411 3909 3411 3365 
L 3411 2317 
L 1222 2317 
L 1222 3365 
C 1222 3909 1331 3942 1779 3942 
C 1818 3981 1818 4120 1779 4160 
C 1536 4160 1274 4160 947 4160 
C 627 4160 365 4160 122 4160 
C 83 4120 83 3981 122 3942 
C 570 3942 678 3910 678 3372 
L 678 780 
C 678 243 570 211 122 211 
C 83 172 83 39 122 0 
C 403 0 710 0 954 0 
C 1184 0 1498 0 1779 0 
C 1818 39 1818 172 1779 211 
C 1331 211 1222 243 1222 774 
L 1222 2048 
L 3411 2048 
L 3411 774 
C 3411 243 3302 211 2854 211 
C 2816 172 2816 39 2854 0 
C 3142 0 3450 0 3686 0 
C 3923 0 4230 0 4512 0 
C 4550 39 4550 172 4512 211 
C 4064 211 3955 243 3955 780 
z
" transform="scale(0.015625)"/>
       <path id="LinLibertineT-4f" d="M 2118 3993 
C 2963 3993 3648 3287 3648 1990 
C 3648 841 3098 167 2368 167 
C 1587 167 851 867 851 2099 
C 851 3447 1485 3993 2118 3993 
z
M 4262 2112 
C 4262 3441 3347 4224 2202 4224 
C 960 4224 237 3235 237 1990 
C 237 726 1152 -64 2240 -64 
C 2950 -64 3514 244 3866 745 
C 4122 1111 4262 1573 4262 2112 
z
" transform="scale(0.015625)"/>
       <path id="LinLibertineT-53" d="M 2528 4051 
C 2157 4102 2170 4224 1542 4224 
C 896 4224 326 3794 326 3114 
C 326 2439 883 2131 1446 1913 
C 1830 1766 2304 1585 2304 957 
C 2304 436 2016 167 1504 167 
C 909 167 525 443 384 1078 
C 301 1104 237 1091 173 1059 
C 198 564 224 398 301 83 
C 704 83 883 -64 1453 -64 
C 1741 -64 2016 6 2240 148 
C 2611 378 2842 771 2842 1181 
C 2842 1862 2330 2163 1805 2362 
C 1421 2504 781 2748 781 3287 
C 781 3647 1107 4006 1485 4006 
C 2106 4006 2304 3607 2432 3184 
C 2502 3171 2586 3178 2643 3223 
C 2618 3531 2592 3710 2528 4051 
z
" transform="scale(0.015625)"/>
      </defs>
      <use xlink:href="#LinLibertineT-48" transform="scale(0.996264)"/>
      <use xlink:href="#LinLibertineT-4f" transform="translate(72.727227 0) scale(0.996264)"/>
      <use xlink:href="#LinLibertineT-41" transform="translate(139.775722 0) scale(0.996264)"/>
      <use xlink:href="#LinLibertineT-53" transform="translate(209.01604 0) scale(0.996264)"/>
     </g>
    </g>
    <g id="patch_39">
     <path d="M 289.618928 55.442564 
L 309.618928 55.442564 
L 309.618928 48.442564 
L 289.618928 48.442564 
z
" style="fill: #2ca02c; stroke: #000000; stroke-width: 0.7; stroke-linejoin: miter"/>
    </g>
    <g id="text_31">
     <!-- Substitution -->
     <g transform="translate(317.618928 55.442564) scale(0.1 -0.1)">
      <use xlink:href="#LinLibertineT-53" transform="scale(0.996264)"/>
      <use xlink:href="#LinLibertineT-75" transform="translate(48.318759 0) scale(0.996264)"/>
      <use xlink:href="#LinLibertineT-62" transform="translate(101.220384 0) scale(0.996264)"/>
      <use xlink:href="#LinLibertineT-73" transform="translate(150.336203 0) scale(0.996264)"/>
      <use xlink:href="#LinLibertineT-74" transform="translate(189.190529 0) scale(0.996264)"/>
      <use xlink:href="#LinLibertineT-69" transform="translate(220.672463 0) scale(0.996264)"/>
      <use xlink:href="#LinLibertineT-74" transform="translate(247.671209 0) scale(0.996264)"/>
      <use xlink:href="#LinLibertineT-75" transform="translate(279.153142 0) scale(0.996264)"/>
      <use xlink:href="#LinLibertineT-74" transform="translate(332.054767 0) scale(0.996264)"/>
      <use xlink:href="#LinLibertineT-69" transform="translate(363.536701 0) scale(0.996264)"/>
      <use xlink:href="#LinLibertineT-6f" transform="translate(390.535446 0) scale(0.996264)"/>
      <use xlink:href="#LinLibertineT-6e" transform="translate(440.747116 0) scale(0.996264)"/>
     </g>
    </g>
   </g>
  </g>
 </g>
 <defs>
  <clipPath id="paf4796c511">
   <rect x="58.038996" y="10.8" width="318.054315" height="236.735024"/>
  </clipPath>
 </defs>
</svg>
